G04 #@! TF.GenerationSoftware,KiCad,Pcbnew,(5.0.1)-3*
G04 #@! TF.CreationDate,2018-11-25T13:27:38+01:00*
G04 #@! TF.ProjectId,Capteur_gaz_connecte_,436170746575725F67617A5F636F6E6E,0.3*
G04 #@! TF.SameCoordinates,Original*
G04 #@! TF.FileFunction,Legend,Top*
G04 #@! TF.FilePolarity,Positive*
%FSLAX46Y46*%
G04 Gerber Fmt 4.6, Leading zero omitted, Abs format (unit mm)*
G04 Created by KiCad (PCBNEW (5.0.1)-3) date 25/11/2018 13:27:38*
%MOMM*%
%LPD*%
G01*
G04 APERTURE LIST*
%ADD10C,0.100000*%
%ADD11C,0.150000*%
%ADD12C,0.300000*%
%ADD13C,0.400000*%
%ADD14C,0.120000*%
G04 APERTURE END LIST*
D10*
D11*
X177002200Y-166007200D02*
X177002200Y-198007200D01*
X285002200Y-198007200D01*
X285002200Y-166007200D01*
X177002200Y-166007200D01*
D10*
D11*
X10000000Y-10000000D02*
X10000000Y-200007200D01*
X287002200Y-200007200D01*
X287002200Y-10000000D01*
X10000000Y-10000000D01*
D10*
D11*
X12000000Y-12000000D02*
X12000000Y-198007200D01*
X285002200Y-198007200D01*
X285002200Y-12000000D01*
X12000000Y-12000000D01*
D10*
D11*
X60000000Y-12000000D02*
X60000000Y-10000000D01*
D10*
D11*
X110000000Y-12000000D02*
X110000000Y-10000000D01*
D10*
D11*
X160000000Y-12000000D02*
X160000000Y-10000000D01*
D10*
D11*
X210000000Y-12000000D02*
X210000000Y-10000000D01*
D10*
D11*
X260000000Y-12000000D02*
X260000000Y-10000000D01*
D10*
D11*
X36065476Y-11588095D02*
X35322619Y-11588095D01*
X35694047Y-11588095D02*
X35694047Y-10288095D01*
X35570238Y-10473809D01*
X35446428Y-10597619D01*
X35322619Y-10659523D01*
D10*
D11*
X85322619Y-10411904D02*
X85384523Y-10350000D01*
X85508333Y-10288095D01*
X85817857Y-10288095D01*
X85941666Y-10350000D01*
X86003571Y-10411904D01*
X86065476Y-10535714D01*
X86065476Y-10659523D01*
X86003571Y-10845238D01*
X85260714Y-11588095D01*
X86065476Y-11588095D01*
D10*
D11*
X135260714Y-10288095D02*
X136065476Y-10288095D01*
X135632142Y-10783333D01*
X135817857Y-10783333D01*
X135941666Y-10845238D01*
X136003571Y-10907142D01*
X136065476Y-11030952D01*
X136065476Y-11340476D01*
X136003571Y-11464285D01*
X135941666Y-11526190D01*
X135817857Y-11588095D01*
X135446428Y-11588095D01*
X135322619Y-11526190D01*
X135260714Y-11464285D01*
D10*
D11*
X185941666Y-10721428D02*
X185941666Y-11588095D01*
X185632142Y-10226190D02*
X185322619Y-11154761D01*
X186127380Y-11154761D01*
D10*
D11*
X236003571Y-10288095D02*
X235384523Y-10288095D01*
X235322619Y-10907142D01*
X235384523Y-10845238D01*
X235508333Y-10783333D01*
X235817857Y-10783333D01*
X235941666Y-10845238D01*
X236003571Y-10907142D01*
X236065476Y-11030952D01*
X236065476Y-11340476D01*
X236003571Y-11464285D01*
X235941666Y-11526190D01*
X235817857Y-11588095D01*
X235508333Y-11588095D01*
X235384523Y-11526190D01*
X235322619Y-11464285D01*
D10*
D11*
X285941666Y-10288095D02*
X285694047Y-10288095D01*
X285570238Y-10350000D01*
X285508333Y-10411904D01*
X285384523Y-10597619D01*
X285322619Y-10845238D01*
X285322619Y-11340476D01*
X285384523Y-11464285D01*
X285446428Y-11526190D01*
X285570238Y-11588095D01*
X285817857Y-11588095D01*
X285941666Y-11526190D01*
X286003571Y-11464285D01*
X286065476Y-11340476D01*
X286065476Y-11030952D01*
X286003571Y-10907142D01*
X285941666Y-10845238D01*
X285817857Y-10783333D01*
X285570238Y-10783333D01*
X285446428Y-10845238D01*
X285384523Y-10907142D01*
X285322619Y-11030952D01*
D10*
D11*
X60000000Y-198007200D02*
X60000000Y-200007200D01*
D10*
D11*
X110000000Y-198007200D02*
X110000000Y-200007200D01*
D10*
D11*
X160000000Y-198007200D02*
X160000000Y-200007200D01*
D10*
D11*
X210000000Y-198007200D02*
X210000000Y-200007200D01*
D10*
D11*
X260000000Y-198007200D02*
X260000000Y-200007200D01*
D10*
D11*
X36065476Y-199595295D02*
X35322619Y-199595295D01*
X35694047Y-199595295D02*
X35694047Y-198295295D01*
X35570238Y-198481009D01*
X35446428Y-198604819D01*
X35322619Y-198666723D01*
D10*
D11*
X85322619Y-198419104D02*
X85384523Y-198357200D01*
X85508333Y-198295295D01*
X85817857Y-198295295D01*
X85941666Y-198357200D01*
X86003571Y-198419104D01*
X86065476Y-198542914D01*
X86065476Y-198666723D01*
X86003571Y-198852438D01*
X85260714Y-199595295D01*
X86065476Y-199595295D01*
D10*
D11*
X135260714Y-198295295D02*
X136065476Y-198295295D01*
X135632142Y-198790533D01*
X135817857Y-198790533D01*
X135941666Y-198852438D01*
X136003571Y-198914342D01*
X136065476Y-199038152D01*
X136065476Y-199347676D01*
X136003571Y-199471485D01*
X135941666Y-199533390D01*
X135817857Y-199595295D01*
X135446428Y-199595295D01*
X135322619Y-199533390D01*
X135260714Y-199471485D01*
D10*
D11*
X185941666Y-198728628D02*
X185941666Y-199595295D01*
X185632142Y-198233390D02*
X185322619Y-199161961D01*
X186127380Y-199161961D01*
D10*
D11*
X236003571Y-198295295D02*
X235384523Y-198295295D01*
X235322619Y-198914342D01*
X235384523Y-198852438D01*
X235508333Y-198790533D01*
X235817857Y-198790533D01*
X235941666Y-198852438D01*
X236003571Y-198914342D01*
X236065476Y-199038152D01*
X236065476Y-199347676D01*
X236003571Y-199471485D01*
X235941666Y-199533390D01*
X235817857Y-199595295D01*
X235508333Y-199595295D01*
X235384523Y-199533390D01*
X235322619Y-199471485D01*
D10*
D11*
X285941666Y-198295295D02*
X285694047Y-198295295D01*
X285570238Y-198357200D01*
X285508333Y-198419104D01*
X285384523Y-198604819D01*
X285322619Y-198852438D01*
X285322619Y-199347676D01*
X285384523Y-199471485D01*
X285446428Y-199533390D01*
X285570238Y-199595295D01*
X285817857Y-199595295D01*
X285941666Y-199533390D01*
X286003571Y-199471485D01*
X286065476Y-199347676D01*
X286065476Y-199038152D01*
X286003571Y-198914342D01*
X285941666Y-198852438D01*
X285817857Y-198790533D01*
X285570238Y-198790533D01*
X285446428Y-198852438D01*
X285384523Y-198914342D01*
X285322619Y-199038152D01*
D10*
D11*
X10000000Y-60000000D02*
X12000000Y-60000000D01*
D10*
D11*
X10000000Y-110000000D02*
X12000000Y-110000000D01*
D10*
D11*
X10000000Y-160000000D02*
X12000000Y-160000000D01*
D10*
D11*
X10690476Y-35216666D02*
X11309523Y-35216666D01*
X10566666Y-35588095D02*
X11000000Y-34288095D01*
X11433333Y-35588095D01*
D10*
D11*
X11092857Y-84907142D02*
X11278571Y-84969047D01*
X11340476Y-85030952D01*
X11402380Y-85154761D01*
X11402380Y-85340476D01*
X11340476Y-85464285D01*
X11278571Y-85526190D01*
X11154761Y-85588095D01*
X10659523Y-85588095D01*
X10659523Y-84288095D01*
X11092857Y-84288095D01*
X11216666Y-84350000D01*
X11278571Y-84411904D01*
X11340476Y-84535714D01*
X11340476Y-84659523D01*
X11278571Y-84783333D01*
X11216666Y-84845238D01*
X11092857Y-84907142D01*
X10659523Y-84907142D01*
D10*
D11*
X11402380Y-135464285D02*
X11340476Y-135526190D01*
X11154761Y-135588095D01*
X11030952Y-135588095D01*
X10845238Y-135526190D01*
X10721428Y-135402380D01*
X10659523Y-135278571D01*
X10597619Y-135030952D01*
X10597619Y-134845238D01*
X10659523Y-134597619D01*
X10721428Y-134473809D01*
X10845238Y-134350000D01*
X11030952Y-134288095D01*
X11154761Y-134288095D01*
X11340476Y-134350000D01*
X11402380Y-134411904D01*
D10*
D11*
X10659523Y-185588095D02*
X10659523Y-184288095D01*
X10969047Y-184288095D01*
X11154761Y-184350000D01*
X11278571Y-184473809D01*
X11340476Y-184597619D01*
X11402380Y-184845238D01*
X11402380Y-185030952D01*
X11340476Y-185278571D01*
X11278571Y-185402380D01*
X11154761Y-185526190D01*
X10969047Y-185588095D01*
X10659523Y-185588095D01*
D10*
D11*
X287002200Y-60000000D02*
X285002200Y-60000000D01*
D10*
D11*
X287002200Y-110000000D02*
X285002200Y-110000000D01*
D10*
D11*
X287002200Y-160000000D02*
X285002200Y-160000000D01*
D10*
D11*
X285692676Y-35216666D02*
X286311723Y-35216666D01*
X285568866Y-35588095D02*
X286002200Y-34288095D01*
X286435533Y-35588095D01*
D10*
D11*
X286095057Y-84907142D02*
X286280771Y-84969047D01*
X286342676Y-85030952D01*
X286404580Y-85154761D01*
X286404580Y-85340476D01*
X286342676Y-85464285D01*
X286280771Y-85526190D01*
X286156961Y-85588095D01*
X285661723Y-85588095D01*
X285661723Y-84288095D01*
X286095057Y-84288095D01*
X286218866Y-84350000D01*
X286280771Y-84411904D01*
X286342676Y-84535714D01*
X286342676Y-84659523D01*
X286280771Y-84783333D01*
X286218866Y-84845238D01*
X286095057Y-84907142D01*
X285661723Y-84907142D01*
D10*
D11*
X286404580Y-135464285D02*
X286342676Y-135526190D01*
X286156961Y-135588095D01*
X286033152Y-135588095D01*
X285847438Y-135526190D01*
X285723628Y-135402380D01*
X285661723Y-135278571D01*
X285599819Y-135030952D01*
X285599819Y-134845238D01*
X285661723Y-134597619D01*
X285723628Y-134473809D01*
X285847438Y-134350000D01*
X286033152Y-134288095D01*
X286156961Y-134288095D01*
X286342676Y-134350000D01*
X286404580Y-134411904D01*
D10*
D11*
X285661723Y-185588095D02*
X285661723Y-184288095D01*
X285971247Y-184288095D01*
X286156961Y-184350000D01*
X286280771Y-184473809D01*
X286342676Y-184597619D01*
X286404580Y-184845238D01*
X286404580Y-185030952D01*
X286342676Y-185278571D01*
X286280771Y-185402380D01*
X286156961Y-185526190D01*
X285971247Y-185588095D01*
X285661723Y-185588095D01*
D10*
D11*
X200434342Y-193785771D02*
X200434342Y-192285771D01*
X200791485Y-192285771D01*
X201005771Y-192357200D01*
X201148628Y-192500057D01*
X201220057Y-192642914D01*
X201291485Y-192928628D01*
X201291485Y-193142914D01*
X201220057Y-193428628D01*
X201148628Y-193571485D01*
X201005771Y-193714342D01*
X200791485Y-193785771D01*
X200434342Y-193785771D01*
X202577200Y-193785771D02*
X202577200Y-193000057D01*
X202505771Y-192857200D01*
X202362914Y-192785771D01*
X202077200Y-192785771D01*
X201934342Y-192857200D01*
X202577200Y-193714342D02*
X202434342Y-193785771D01*
X202077200Y-193785771D01*
X201934342Y-193714342D01*
X201862914Y-193571485D01*
X201862914Y-193428628D01*
X201934342Y-193285771D01*
X202077200Y-193214342D01*
X202434342Y-193214342D01*
X202577200Y-193142914D01*
X203077200Y-192785771D02*
X203648628Y-192785771D01*
X203291485Y-192285771D02*
X203291485Y-193571485D01*
X203362914Y-193714342D01*
X203505771Y-193785771D01*
X203648628Y-193785771D01*
X204720057Y-193714342D02*
X204577200Y-193785771D01*
X204291485Y-193785771D01*
X204148628Y-193714342D01*
X204077200Y-193571485D01*
X204077200Y-193000057D01*
X204148628Y-192857200D01*
X204291485Y-192785771D01*
X204577200Y-192785771D01*
X204720057Y-192857200D01*
X204791485Y-193000057D01*
X204791485Y-193142914D01*
X204077200Y-193285771D01*
X205434342Y-193642914D02*
X205505771Y-193714342D01*
X205434342Y-193785771D01*
X205362914Y-193714342D01*
X205434342Y-193642914D01*
X205434342Y-193785771D01*
X205434342Y-192857200D02*
X205505771Y-192928628D01*
X205434342Y-193000057D01*
X205362914Y-192928628D01*
X205434342Y-192857200D01*
X205434342Y-193000057D01*
X207220057Y-192428628D02*
X207291485Y-192357200D01*
X207434342Y-192285771D01*
X207791485Y-192285771D01*
X207934342Y-192357200D01*
X208005771Y-192428628D01*
X208077200Y-192571485D01*
X208077200Y-192714342D01*
X208005771Y-192928628D01*
X207148628Y-193785771D01*
X208077200Y-193785771D01*
X209005771Y-192285771D02*
X209148628Y-192285771D01*
X209291485Y-192357200D01*
X209362914Y-192428628D01*
X209434342Y-192571485D01*
X209505771Y-192857200D01*
X209505771Y-193214342D01*
X209434342Y-193500057D01*
X209362914Y-193642914D01*
X209291485Y-193714342D01*
X209148628Y-193785771D01*
X209005771Y-193785771D01*
X208862914Y-193714342D01*
X208791485Y-193642914D01*
X208720057Y-193500057D01*
X208648628Y-193214342D01*
X208648628Y-192857200D01*
X208720057Y-192571485D01*
X208791485Y-192428628D01*
X208862914Y-192357200D01*
X209005771Y-192285771D01*
X210934342Y-193785771D02*
X210077200Y-193785771D01*
X210505771Y-193785771D02*
X210505771Y-192285771D01*
X210362914Y-192500057D01*
X210220057Y-192642914D01*
X210077200Y-192714342D01*
X211791485Y-192928628D02*
X211648628Y-192857200D01*
X211577200Y-192785771D01*
X211505771Y-192642914D01*
X211505771Y-192571485D01*
X211577200Y-192428628D01*
X211648628Y-192357200D01*
X211791485Y-192285771D01*
X212077200Y-192285771D01*
X212220057Y-192357200D01*
X212291485Y-192428628D01*
X212362914Y-192571485D01*
X212362914Y-192642914D01*
X212291485Y-192785771D01*
X212220057Y-192857200D01*
X212077200Y-192928628D01*
X211791485Y-192928628D01*
X211648628Y-193000057D01*
X211577200Y-193071485D01*
X211505771Y-193214342D01*
X211505771Y-193500057D01*
X211577200Y-193642914D01*
X211648628Y-193714342D01*
X211791485Y-193785771D01*
X212077200Y-193785771D01*
X212220057Y-193714342D01*
X212291485Y-193642914D01*
X212362914Y-193500057D01*
X212362914Y-193214342D01*
X212291485Y-193071485D01*
X212220057Y-193000057D01*
X212077200Y-192928628D01*
X213005771Y-193214342D02*
X214148628Y-193214342D01*
X215648628Y-193785771D02*
X214791485Y-193785771D01*
X215220057Y-193785771D02*
X215220057Y-192285771D01*
X215077200Y-192500057D01*
X214934342Y-192642914D01*
X214791485Y-192714342D01*
X217077200Y-193785771D02*
X216220057Y-193785771D01*
X216648628Y-193785771D02*
X216648628Y-192285771D01*
X216505771Y-192500057D01*
X216362914Y-192642914D01*
X216220057Y-192714342D01*
X217720057Y-193214342D02*
X218862914Y-193214342D01*
X219505771Y-192428628D02*
X219577200Y-192357200D01*
X219720057Y-192285771D01*
X220077200Y-192285771D01*
X220220057Y-192357200D01*
X220291485Y-192428628D01*
X220362914Y-192571485D01*
X220362914Y-192714342D01*
X220291485Y-192928628D01*
X219434342Y-193785771D01*
X220362914Y-193785771D01*
X221720057Y-192285771D02*
X221005771Y-192285771D01*
X220934342Y-193000057D01*
X221005771Y-192928628D01*
X221148628Y-192857200D01*
X221505771Y-192857200D01*
X221648628Y-192928628D01*
X221720057Y-193000057D01*
X221791485Y-193142914D01*
X221791485Y-193500057D01*
X221720057Y-193642914D01*
X221648628Y-193714342D01*
X221505771Y-193785771D01*
X221148628Y-193785771D01*
X221005771Y-193714342D01*
X220934342Y-193642914D01*
D10*
D11*
X177002200Y-194507200D02*
X285002200Y-194507200D01*
D10*
D11*
X178434342Y-196585771D02*
X178434342Y-195085771D01*
X179291485Y-196585771D02*
X178648628Y-195728628D01*
X179291485Y-195085771D02*
X178434342Y-195942914D01*
X179934342Y-196585771D02*
X179934342Y-195585771D01*
X179934342Y-195085771D02*
X179862914Y-195157200D01*
X179934342Y-195228628D01*
X180005771Y-195157200D01*
X179934342Y-195085771D01*
X179934342Y-195228628D01*
X181505771Y-196442914D02*
X181434342Y-196514342D01*
X181220057Y-196585771D01*
X181077200Y-196585771D01*
X180862914Y-196514342D01*
X180720057Y-196371485D01*
X180648628Y-196228628D01*
X180577200Y-195942914D01*
X180577200Y-195728628D01*
X180648628Y-195442914D01*
X180720057Y-195300057D01*
X180862914Y-195157200D01*
X181077200Y-195085771D01*
X181220057Y-195085771D01*
X181434342Y-195157200D01*
X181505771Y-195228628D01*
X182791485Y-196585771D02*
X182791485Y-195800057D01*
X182720057Y-195657200D01*
X182577200Y-195585771D01*
X182291485Y-195585771D01*
X182148628Y-195657200D01*
X182791485Y-196514342D02*
X182648628Y-196585771D01*
X182291485Y-196585771D01*
X182148628Y-196514342D01*
X182077200Y-196371485D01*
X182077200Y-196228628D01*
X182148628Y-196085771D01*
X182291485Y-196014342D01*
X182648628Y-196014342D01*
X182791485Y-195942914D01*
X184148628Y-196585771D02*
X184148628Y-195085771D01*
X184148628Y-196514342D02*
X184005771Y-196585771D01*
X183720057Y-196585771D01*
X183577200Y-196514342D01*
X183505771Y-196442914D01*
X183434342Y-196300057D01*
X183434342Y-195871485D01*
X183505771Y-195728628D01*
X183577200Y-195657200D01*
X183720057Y-195585771D01*
X184005771Y-195585771D01*
X184148628Y-195657200D01*
X186005771Y-195800057D02*
X186505771Y-195800057D01*
X186720057Y-196585771D02*
X186005771Y-196585771D01*
X186005771Y-195085771D01*
X186720057Y-195085771D01*
X187362914Y-196442914D02*
X187434342Y-196514342D01*
X187362914Y-196585771D01*
X187291485Y-196514342D01*
X187362914Y-196442914D01*
X187362914Y-196585771D01*
X188077200Y-196585771D02*
X188077200Y-195085771D01*
X188434342Y-195085771D01*
X188648628Y-195157200D01*
X188791485Y-195300057D01*
X188862914Y-195442914D01*
X188934342Y-195728628D01*
X188934342Y-195942914D01*
X188862914Y-196228628D01*
X188791485Y-196371485D01*
X188648628Y-196514342D01*
X188434342Y-196585771D01*
X188077200Y-196585771D01*
X189577200Y-196442914D02*
X189648628Y-196514342D01*
X189577200Y-196585771D01*
X189505771Y-196514342D01*
X189577200Y-196442914D01*
X189577200Y-196585771D01*
X190220057Y-196157200D02*
X190934342Y-196157200D01*
X190077200Y-196585771D02*
X190577200Y-195085771D01*
X191077200Y-196585771D01*
X191577200Y-196442914D02*
X191648628Y-196514342D01*
X191577200Y-196585771D01*
X191505771Y-196514342D01*
X191577200Y-196442914D01*
X191577200Y-196585771D01*
X194577200Y-196585771D02*
X194577200Y-195085771D01*
X194720057Y-196014342D02*
X195148628Y-196585771D01*
X195148628Y-195585771D02*
X194577200Y-196157200D01*
X195791485Y-196585771D02*
X195791485Y-195585771D01*
X195791485Y-195085771D02*
X195720057Y-195157200D01*
X195791485Y-195228628D01*
X195862914Y-195157200D01*
X195791485Y-195085771D01*
X195791485Y-195228628D01*
X197148628Y-196514342D02*
X197005771Y-196585771D01*
X196720057Y-196585771D01*
X196577200Y-196514342D01*
X196505771Y-196442914D01*
X196434342Y-196300057D01*
X196434342Y-195871485D01*
X196505771Y-195728628D01*
X196577200Y-195657200D01*
X196720057Y-195585771D01*
X197005771Y-195585771D01*
X197148628Y-195657200D01*
X198434342Y-196585771D02*
X198434342Y-195800057D01*
X198362914Y-195657200D01*
X198220057Y-195585771D01*
X197934342Y-195585771D01*
X197791485Y-195657200D01*
X198434342Y-196514342D02*
X198291485Y-196585771D01*
X197934342Y-196585771D01*
X197791485Y-196514342D01*
X197720057Y-196371485D01*
X197720057Y-196228628D01*
X197791485Y-196085771D01*
X197934342Y-196014342D01*
X198291485Y-196014342D01*
X198434342Y-195942914D01*
X199791485Y-196585771D02*
X199791485Y-195085771D01*
X199791485Y-196514342D02*
X199648628Y-196585771D01*
X199362914Y-196585771D01*
X199220057Y-196514342D01*
X199148628Y-196442914D01*
X199077200Y-196300057D01*
X199077200Y-195871485D01*
X199148628Y-195728628D01*
X199220057Y-195657200D01*
X199362914Y-195585771D01*
X199648628Y-195585771D01*
X199791485Y-195657200D01*
X202077200Y-197157200D02*
X202005771Y-197085771D01*
X201862914Y-196871485D01*
X201791485Y-196728628D01*
X201720057Y-196514342D01*
X201648628Y-196157200D01*
X201648628Y-195871485D01*
X201720057Y-195514342D01*
X201791485Y-195300057D01*
X201862914Y-195157200D01*
X202005771Y-194942914D01*
X202077200Y-194871485D01*
X203362914Y-195085771D02*
X202648628Y-195085771D01*
X202577200Y-195800057D01*
X202648628Y-195728628D01*
X202791485Y-195657200D01*
X203148628Y-195657200D01*
X203291485Y-195728628D01*
X203362914Y-195800057D01*
X203434342Y-195942914D01*
X203434342Y-196300057D01*
X203362914Y-196442914D01*
X203291485Y-196514342D01*
X203148628Y-196585771D01*
X202791485Y-196585771D01*
X202648628Y-196514342D01*
X202577200Y-196442914D01*
X204077200Y-196442914D02*
X204148628Y-196514342D01*
X204077200Y-196585771D01*
X204005771Y-196514342D01*
X204077200Y-196442914D01*
X204077200Y-196585771D01*
X205077200Y-195085771D02*
X205220057Y-195085771D01*
X205362914Y-195157200D01*
X205434342Y-195228628D01*
X205505771Y-195371485D01*
X205577200Y-195657200D01*
X205577200Y-196014342D01*
X205505771Y-196300057D01*
X205434342Y-196442914D01*
X205362914Y-196514342D01*
X205220057Y-196585771D01*
X205077200Y-196585771D01*
X204934342Y-196514342D01*
X204862914Y-196442914D01*
X204791485Y-196300057D01*
X204720057Y-196014342D01*
X204720057Y-195657200D01*
X204791485Y-195371485D01*
X204862914Y-195228628D01*
X204934342Y-195157200D01*
X205077200Y-195085771D01*
X206220057Y-196442914D02*
X206291485Y-196514342D01*
X206220057Y-196585771D01*
X206148628Y-196514342D01*
X206220057Y-196442914D01*
X206220057Y-196585771D01*
X207720057Y-196585771D02*
X206862914Y-196585771D01*
X207291485Y-196585771D02*
X207291485Y-195085771D01*
X207148628Y-195300057D01*
X207005771Y-195442914D01*
X206862914Y-195514342D01*
X208220057Y-197157200D02*
X208291485Y-197085771D01*
X208434342Y-196871485D01*
X208505771Y-196728628D01*
X208577200Y-196514342D01*
X208648628Y-196157200D01*
X208648628Y-195871485D01*
X208577200Y-195514342D01*
X208505771Y-195300057D01*
X208434342Y-195157200D01*
X208291485Y-194942914D01*
X208220057Y-194871485D01*
X209362914Y-196014342D02*
X210505771Y-196014342D01*
X211077200Y-195085771D02*
X212005771Y-195085771D01*
X211505771Y-195657200D01*
X211720057Y-195657200D01*
X211862914Y-195728628D01*
X211934342Y-195800057D01*
X212005771Y-195942914D01*
X212005771Y-196300057D01*
X211934342Y-196442914D01*
X211862914Y-196514342D01*
X211720057Y-196585771D01*
X211291485Y-196585771D01*
X211148628Y-196514342D01*
X211077200Y-196442914D01*
D10*
D11*
X177002200Y-191507200D02*
X285002200Y-191507200D01*
D10*
D12*
X264411485Y-193785771D02*
X263911485Y-193071485D01*
X263554342Y-193785771D02*
X263554342Y-192285771D01*
X264125771Y-192285771D01*
X264268628Y-192357200D01*
X264340057Y-192428628D01*
X264411485Y-192571485D01*
X264411485Y-192785771D01*
X264340057Y-192928628D01*
X264268628Y-193000057D01*
X264125771Y-193071485D01*
X263554342Y-193071485D01*
X265625771Y-193714342D02*
X265482914Y-193785771D01*
X265197200Y-193785771D01*
X265054342Y-193714342D01*
X264982914Y-193571485D01*
X264982914Y-193000057D01*
X265054342Y-192857200D01*
X265197200Y-192785771D01*
X265482914Y-192785771D01*
X265625771Y-192857200D01*
X265697200Y-193000057D01*
X265697200Y-193142914D01*
X264982914Y-193285771D01*
X266197200Y-192785771D02*
X266554342Y-193785771D01*
X266911485Y-192785771D01*
X267482914Y-193642914D02*
X267554342Y-193714342D01*
X267482914Y-193785771D01*
X267411485Y-193714342D01*
X267482914Y-193642914D01*
X267482914Y-193785771D01*
X267482914Y-192857200D02*
X267554342Y-192928628D01*
X267482914Y-193000057D01*
X267411485Y-192928628D01*
X267482914Y-192857200D01*
X267482914Y-193000057D01*
X269625771Y-192285771D02*
X269768628Y-192285771D01*
X269911485Y-192357200D01*
X269982914Y-192428628D01*
X270054342Y-192571485D01*
X270125771Y-192857200D01*
X270125771Y-193214342D01*
X270054342Y-193500057D01*
X269982914Y-193642914D01*
X269911485Y-193714342D01*
X269768628Y-193785771D01*
X269625771Y-193785771D01*
X269482914Y-193714342D01*
X269411485Y-193642914D01*
X269340057Y-193500057D01*
X269268628Y-193214342D01*
X269268628Y-192857200D01*
X269340057Y-192571485D01*
X269411485Y-192428628D01*
X269482914Y-192357200D01*
X269625771Y-192285771D01*
X270768628Y-193642914D02*
X270840057Y-193714342D01*
X270768628Y-193785771D01*
X270697200Y-193714342D01*
X270768628Y-193642914D01*
X270768628Y-193785771D01*
X271340057Y-192285771D02*
X272268628Y-192285771D01*
X271768628Y-192857200D01*
X271982914Y-192857200D01*
X272125771Y-192928628D01*
X272197200Y-193000057D01*
X272268628Y-193142914D01*
X272268628Y-193500057D01*
X272197200Y-193642914D01*
X272125771Y-193714342D01*
X271982914Y-193785771D01*
X271554342Y-193785771D01*
X271411485Y-193714342D01*
X271340057Y-193642914D01*
D10*
D11*
X178362914Y-193714342D02*
X178577200Y-193785771D01*
X178934342Y-193785771D01*
X179077200Y-193714342D01*
X179148628Y-193642914D01*
X179220057Y-193500057D01*
X179220057Y-193357200D01*
X179148628Y-193214342D01*
X179077200Y-193142914D01*
X178934342Y-193071485D01*
X178648628Y-193000057D01*
X178505771Y-192928628D01*
X178434342Y-192857200D01*
X178362914Y-192714342D01*
X178362914Y-192571485D01*
X178434342Y-192428628D01*
X178505771Y-192357200D01*
X178648628Y-192285771D01*
X179005771Y-192285771D01*
X179220057Y-192357200D01*
X179862914Y-193785771D02*
X179862914Y-192785771D01*
X179862914Y-192285771D02*
X179791485Y-192357200D01*
X179862914Y-192428628D01*
X179934342Y-192357200D01*
X179862914Y-192285771D01*
X179862914Y-192428628D01*
X180434342Y-192785771D02*
X181220057Y-192785771D01*
X180434342Y-193785771D01*
X181220057Y-193785771D01*
X182362914Y-193714342D02*
X182220057Y-193785771D01*
X181934342Y-193785771D01*
X181791485Y-193714342D01*
X181720057Y-193571485D01*
X181720057Y-193000057D01*
X181791485Y-192857200D01*
X181934342Y-192785771D01*
X182220057Y-192785771D01*
X182362914Y-192857200D01*
X182434342Y-193000057D01*
X182434342Y-193142914D01*
X181720057Y-193285771D01*
X183077200Y-193642914D02*
X183148628Y-193714342D01*
X183077200Y-193785771D01*
X183005771Y-193714342D01*
X183077200Y-193642914D01*
X183077200Y-193785771D01*
X183077200Y-192857200D02*
X183148628Y-192928628D01*
X183077200Y-193000057D01*
X183005771Y-192928628D01*
X183077200Y-192857200D01*
X183077200Y-193000057D01*
X184862914Y-193357200D02*
X185577200Y-193357200D01*
X184720057Y-193785771D02*
X185220057Y-192285771D01*
X185720057Y-193785771D01*
X186862914Y-192785771D02*
X186862914Y-193785771D01*
X186505771Y-192214342D02*
X186148628Y-193285771D01*
X187077200Y-193285771D01*
D10*
D11*
X263434342Y-196585771D02*
X263434342Y-195085771D01*
X264791485Y-196585771D02*
X264791485Y-195085771D01*
X264791485Y-196514342D02*
X264648628Y-196585771D01*
X264362914Y-196585771D01*
X264220057Y-196514342D01*
X264148628Y-196442914D01*
X264077200Y-196300057D01*
X264077200Y-195871485D01*
X264148628Y-195728628D01*
X264220057Y-195657200D01*
X264362914Y-195585771D01*
X264648628Y-195585771D01*
X264791485Y-195657200D01*
X265505771Y-196442914D02*
X265577200Y-196514342D01*
X265505771Y-196585771D01*
X265434342Y-196514342D01*
X265505771Y-196442914D01*
X265505771Y-196585771D01*
X265505771Y-195657200D02*
X265577200Y-195728628D01*
X265505771Y-195800057D01*
X265434342Y-195728628D01*
X265505771Y-195657200D01*
X265505771Y-195800057D01*
X268148628Y-196585771D02*
X267291485Y-196585771D01*
X267720057Y-196585771D02*
X267720057Y-195085771D01*
X267577200Y-195300057D01*
X267434342Y-195442914D01*
X267291485Y-195514342D01*
X269862914Y-195014342D02*
X268577200Y-196942914D01*
X271148628Y-196585771D02*
X270291485Y-196585771D01*
X270720057Y-196585771D02*
X270720057Y-195085771D01*
X270577200Y-195300057D01*
X270434342Y-195442914D01*
X270291485Y-195514342D01*
D10*
D11*
X177002200Y-187507200D02*
X285002200Y-187507200D01*
D10*
D13*
X178714580Y-188211961D02*
X179857438Y-188211961D01*
X179036009Y-190211961D02*
X179286009Y-188211961D01*
X180274104Y-190211961D02*
X180440771Y-188878628D01*
X180524104Y-188211961D02*
X180416961Y-188307200D01*
X180500295Y-188402438D01*
X180607438Y-188307200D01*
X180524104Y-188211961D01*
X180500295Y-188402438D01*
X181107438Y-188878628D02*
X181869342Y-188878628D01*
X181476485Y-188211961D02*
X181262200Y-189926247D01*
X181333628Y-190116723D01*
X181512200Y-190211961D01*
X181702676Y-190211961D01*
X182655057Y-190211961D02*
X182476485Y-190116723D01*
X182405057Y-189926247D01*
X182619342Y-188211961D01*
X184190771Y-190116723D02*
X183988390Y-190211961D01*
X183607438Y-190211961D01*
X183428866Y-190116723D01*
X183357438Y-189926247D01*
X183452676Y-189164342D01*
X183571723Y-188973866D01*
X183774104Y-188878628D01*
X184155057Y-188878628D01*
X184333628Y-188973866D01*
X184405057Y-189164342D01*
X184381247Y-189354819D01*
X183405057Y-189545295D01*
X185155057Y-190021485D02*
X185238390Y-190116723D01*
X185131247Y-190211961D01*
X185047914Y-190116723D01*
X185155057Y-190021485D01*
X185131247Y-190211961D01*
X185286009Y-188973866D02*
X185369342Y-189069104D01*
X185262200Y-189164342D01*
X185178866Y-189069104D01*
X185286009Y-188973866D01*
X185262200Y-189164342D01*
X188774104Y-190021485D02*
X188666961Y-190116723D01*
X188369342Y-190211961D01*
X188178866Y-190211961D01*
X187905057Y-190116723D01*
X187738390Y-189926247D01*
X187666961Y-189735771D01*
X187619342Y-189354819D01*
X187655057Y-189069104D01*
X187797914Y-188688152D01*
X187916961Y-188497676D01*
X188131247Y-188307200D01*
X188428866Y-188211961D01*
X188619342Y-188211961D01*
X188893152Y-188307200D01*
X188976485Y-188402438D01*
X190464580Y-190211961D02*
X190595533Y-189164342D01*
X190524104Y-188973866D01*
X190345533Y-188878628D01*
X189964580Y-188878628D01*
X189762200Y-188973866D01*
X190476485Y-190116723D02*
X190274104Y-190211961D01*
X189797914Y-190211961D01*
X189619342Y-190116723D01*
X189547914Y-189926247D01*
X189571723Y-189735771D01*
X189690771Y-189545295D01*
X189893152Y-189450057D01*
X190369342Y-189450057D01*
X190571723Y-189354819D01*
X191583628Y-188878628D02*
X191333628Y-190878628D01*
X191571723Y-188973866D02*
X191774104Y-188878628D01*
X192155057Y-188878628D01*
X192333628Y-188973866D01*
X192416961Y-189069104D01*
X192488390Y-189259580D01*
X192416961Y-189831009D01*
X192297914Y-190021485D01*
X192190771Y-190116723D01*
X191988390Y-190211961D01*
X191607438Y-190211961D01*
X191428866Y-190116723D01*
X193107438Y-188878628D02*
X193869342Y-188878628D01*
X193476485Y-188211961D02*
X193262200Y-189926247D01*
X193333628Y-190116723D01*
X193512200Y-190211961D01*
X193702676Y-190211961D01*
X195143152Y-190116723D02*
X194940771Y-190211961D01*
X194559819Y-190211961D01*
X194381247Y-190116723D01*
X194309819Y-189926247D01*
X194405057Y-189164342D01*
X194524104Y-188973866D01*
X194726485Y-188878628D01*
X195107438Y-188878628D01*
X195286009Y-188973866D01*
X195357438Y-189164342D01*
X195333628Y-189354819D01*
X194357438Y-189545295D01*
X197107438Y-188878628D02*
X196940771Y-190211961D01*
X196250295Y-188878628D02*
X196119342Y-189926247D01*
X196190771Y-190116723D01*
X196369342Y-190211961D01*
X196655057Y-190211961D01*
X196857438Y-190116723D01*
X196964580Y-190021485D01*
X197893152Y-190211961D02*
X198059819Y-188878628D01*
X198012200Y-189259580D02*
X198131247Y-189069104D01*
X198238390Y-188973866D01*
X198440771Y-188878628D01*
X198631247Y-188878628D01*
X201678866Y-188878628D02*
X201476485Y-190497676D01*
X201357438Y-190688152D01*
X201250295Y-190783390D01*
X201047914Y-190878628D01*
X200762200Y-190878628D01*
X200583628Y-190783390D01*
X201524104Y-190116723D02*
X201321723Y-190211961D01*
X200940771Y-190211961D01*
X200762200Y-190116723D01*
X200678866Y-190021485D01*
X200607438Y-189831009D01*
X200678866Y-189259580D01*
X200797914Y-189069104D01*
X200905057Y-188973866D01*
X201107438Y-188878628D01*
X201488390Y-188878628D01*
X201666961Y-188973866D01*
X203321723Y-190211961D02*
X203452676Y-189164342D01*
X203381247Y-188973866D01*
X203202676Y-188878628D01*
X202821723Y-188878628D01*
X202619342Y-188973866D01*
X203333628Y-190116723D02*
X203131247Y-190211961D01*
X202655057Y-190211961D01*
X202476485Y-190116723D01*
X202405057Y-189926247D01*
X202428866Y-189735771D01*
X202547914Y-189545295D01*
X202750295Y-189450057D01*
X203226485Y-189450057D01*
X203428866Y-189354819D01*
X204250295Y-188878628D02*
X205297914Y-188878628D01*
X204083628Y-190211961D01*
X205131247Y-190211961D01*
X208286009Y-190116723D02*
X208083628Y-190211961D01*
X207702676Y-190211961D01*
X207524104Y-190116723D01*
X207440771Y-190021485D01*
X207369342Y-189831009D01*
X207440771Y-189259580D01*
X207559819Y-189069104D01*
X207666961Y-188973866D01*
X207869342Y-188878628D01*
X208250295Y-188878628D01*
X208428866Y-188973866D01*
X209416961Y-190211961D02*
X209238390Y-190116723D01*
X209155057Y-190021485D01*
X209083628Y-189831009D01*
X209155057Y-189259580D01*
X209274104Y-189069104D01*
X209381247Y-188973866D01*
X209583628Y-188878628D01*
X209869342Y-188878628D01*
X210047914Y-188973866D01*
X210131247Y-189069104D01*
X210202676Y-189259580D01*
X210131247Y-189831009D01*
X210012200Y-190021485D01*
X209905057Y-190116723D01*
X209702676Y-190211961D01*
X209416961Y-190211961D01*
X211107438Y-188878628D02*
X210940771Y-190211961D01*
X211083628Y-189069104D02*
X211190771Y-188973866D01*
X211393152Y-188878628D01*
X211678866Y-188878628D01*
X211857438Y-188973866D01*
X211928866Y-189164342D01*
X211797914Y-190211961D01*
X212916961Y-188878628D02*
X212750295Y-190211961D01*
X212893152Y-189069104D02*
X213000295Y-188973866D01*
X213202676Y-188878628D01*
X213488390Y-188878628D01*
X213666961Y-188973866D01*
X213738390Y-189164342D01*
X213607438Y-190211961D01*
X215333628Y-190116723D02*
X215131247Y-190211961D01*
X214750295Y-190211961D01*
X214571723Y-190116723D01*
X214500295Y-189926247D01*
X214595533Y-189164342D01*
X214714580Y-188973866D01*
X214916961Y-188878628D01*
X215297914Y-188878628D01*
X215476485Y-188973866D01*
X215547914Y-189164342D01*
X215524104Y-189354819D01*
X214547914Y-189545295D01*
X217143152Y-190116723D02*
X216940771Y-190211961D01*
X216559819Y-190211961D01*
X216381247Y-190116723D01*
X216297914Y-190021485D01*
X216226485Y-189831009D01*
X216297914Y-189259580D01*
X216416961Y-189069104D01*
X216524104Y-188973866D01*
X216726485Y-188878628D01*
X217107438Y-188878628D01*
X217286009Y-188973866D01*
X217869342Y-188878628D02*
X218631247Y-188878628D01*
X218238390Y-188211961D02*
X218024104Y-189926247D01*
X218095533Y-190116723D01*
X218274104Y-190211961D01*
X218464580Y-190211961D01*
X219905057Y-190116723D02*
X219702676Y-190211961D01*
X219321723Y-190211961D01*
X219143152Y-190116723D01*
X219071723Y-189926247D01*
X219166961Y-189164342D01*
X219286009Y-188973866D01*
X219488390Y-188878628D01*
X219869342Y-188878628D01*
X220047914Y-188973866D01*
X220119342Y-189164342D01*
X220095533Y-189354819D01*
X219119342Y-189545295D01*
X219964580Y-188116723D02*
X219643152Y-188402438D01*
D10*
D11*
X178934342Y-185600057D02*
X178434342Y-185600057D01*
X178434342Y-186385771D02*
X178434342Y-184885771D01*
X179148628Y-184885771D01*
X179720057Y-186385771D02*
X179720057Y-185385771D01*
X179720057Y-184885771D02*
X179648628Y-184957200D01*
X179720057Y-185028628D01*
X179791485Y-184957200D01*
X179720057Y-184885771D01*
X179720057Y-185028628D01*
X180648628Y-186385771D02*
X180505771Y-186314342D01*
X180434342Y-186171485D01*
X180434342Y-184885771D01*
X181791485Y-186314342D02*
X181648628Y-186385771D01*
X181362914Y-186385771D01*
X181220057Y-186314342D01*
X181148628Y-186171485D01*
X181148628Y-185600057D01*
X181220057Y-185457200D01*
X181362914Y-185385771D01*
X181648628Y-185385771D01*
X181791485Y-185457200D01*
X181862914Y-185600057D01*
X181862914Y-185742914D01*
X181148628Y-185885771D01*
X182505771Y-186242914D02*
X182577200Y-186314342D01*
X182505771Y-186385771D01*
X182434342Y-186314342D01*
X182505771Y-186242914D01*
X182505771Y-186385771D01*
X182505771Y-185457200D02*
X182577200Y-185528628D01*
X182505771Y-185600057D01*
X182434342Y-185528628D01*
X182505771Y-185457200D01*
X182505771Y-185600057D01*
X185220057Y-186242914D02*
X185148628Y-186314342D01*
X184934342Y-186385771D01*
X184791485Y-186385771D01*
X184577200Y-186314342D01*
X184434342Y-186171485D01*
X184362914Y-186028628D01*
X184291485Y-185742914D01*
X184291485Y-185528628D01*
X184362914Y-185242914D01*
X184434342Y-185100057D01*
X184577200Y-184957200D01*
X184791485Y-184885771D01*
X184934342Y-184885771D01*
X185148628Y-184957200D01*
X185220057Y-185028628D01*
X186505771Y-186385771D02*
X186505771Y-185600057D01*
X186434342Y-185457200D01*
X186291485Y-185385771D01*
X186005771Y-185385771D01*
X185862914Y-185457200D01*
X186505771Y-186314342D02*
X186362914Y-186385771D01*
X186005771Y-186385771D01*
X185862914Y-186314342D01*
X185791485Y-186171485D01*
X185791485Y-186028628D01*
X185862914Y-185885771D01*
X186005771Y-185814342D01*
X186362914Y-185814342D01*
X186505771Y-185742914D01*
X187220057Y-185385771D02*
X187220057Y-186885771D01*
X187220057Y-185457200D02*
X187362914Y-185385771D01*
X187648628Y-185385771D01*
X187791485Y-185457200D01*
X187862914Y-185528628D01*
X187934342Y-185671485D01*
X187934342Y-186100057D01*
X187862914Y-186242914D01*
X187791485Y-186314342D01*
X187648628Y-186385771D01*
X187362914Y-186385771D01*
X187220057Y-186314342D01*
X188362914Y-185385771D02*
X188934342Y-185385771D01*
X188577200Y-184885771D02*
X188577200Y-186171485D01*
X188648628Y-186314342D01*
X188791485Y-186385771D01*
X188934342Y-186385771D01*
X190005771Y-186314342D02*
X189862914Y-186385771D01*
X189577200Y-186385771D01*
X189434342Y-186314342D01*
X189362914Y-186171485D01*
X189362914Y-185600057D01*
X189434342Y-185457200D01*
X189577200Y-185385771D01*
X189862914Y-185385771D01*
X190005771Y-185457200D01*
X190077200Y-185600057D01*
X190077200Y-185742914D01*
X189362914Y-185885771D01*
X191362914Y-185385771D02*
X191362914Y-186385771D01*
X190720057Y-185385771D02*
X190720057Y-186171485D01*
X190791485Y-186314342D01*
X190934342Y-186385771D01*
X191148628Y-186385771D01*
X191291485Y-186314342D01*
X191362914Y-186242914D01*
X192077200Y-186385771D02*
X192077200Y-185385771D01*
X192077200Y-185671485D02*
X192148628Y-185528628D01*
X192220057Y-185457200D01*
X192362914Y-185385771D01*
X192505771Y-185385771D01*
X192648628Y-186528628D02*
X193791485Y-186528628D01*
X194791485Y-185385771D02*
X194791485Y-186600057D01*
X194720057Y-186742914D01*
X194648628Y-186814342D01*
X194505771Y-186885771D01*
X194291485Y-186885771D01*
X194148628Y-186814342D01*
X194791485Y-186314342D02*
X194648628Y-186385771D01*
X194362914Y-186385771D01*
X194220057Y-186314342D01*
X194148628Y-186242914D01*
X194077200Y-186100057D01*
X194077200Y-185671485D01*
X194148628Y-185528628D01*
X194220057Y-185457200D01*
X194362914Y-185385771D01*
X194648628Y-185385771D01*
X194791485Y-185457200D01*
X196148628Y-186385771D02*
X196148628Y-185600057D01*
X196077200Y-185457200D01*
X195934342Y-185385771D01*
X195648628Y-185385771D01*
X195505771Y-185457200D01*
X196148628Y-186314342D02*
X196005771Y-186385771D01*
X195648628Y-186385771D01*
X195505771Y-186314342D01*
X195434342Y-186171485D01*
X195434342Y-186028628D01*
X195505771Y-185885771D01*
X195648628Y-185814342D01*
X196005771Y-185814342D01*
X196148628Y-185742914D01*
X196720057Y-185385771D02*
X197505771Y-185385771D01*
X196720057Y-186385771D01*
X197505771Y-186385771D01*
X197720057Y-186528628D02*
X198862914Y-186528628D01*
X199862914Y-186314342D02*
X199720057Y-186385771D01*
X199434342Y-186385771D01*
X199291485Y-186314342D01*
X199220057Y-186242914D01*
X199148628Y-186100057D01*
X199148628Y-185671485D01*
X199220057Y-185528628D01*
X199291485Y-185457200D01*
X199434342Y-185385771D01*
X199720057Y-185385771D01*
X199862914Y-185457200D01*
X200720057Y-186385771D02*
X200577200Y-186314342D01*
X200505771Y-186242914D01*
X200434342Y-186100057D01*
X200434342Y-185671485D01*
X200505771Y-185528628D01*
X200577200Y-185457200D01*
X200720057Y-185385771D01*
X200934342Y-185385771D01*
X201077200Y-185457200D01*
X201148628Y-185528628D01*
X201220057Y-185671485D01*
X201220057Y-186100057D01*
X201148628Y-186242914D01*
X201077200Y-186314342D01*
X200934342Y-186385771D01*
X200720057Y-186385771D01*
X201862914Y-185385771D02*
X201862914Y-186385771D01*
X201862914Y-185528628D02*
X201934342Y-185457200D01*
X202077200Y-185385771D01*
X202291485Y-185385771D01*
X202434342Y-185457200D01*
X202505771Y-185600057D01*
X202505771Y-186385771D01*
X203220057Y-185385771D02*
X203220057Y-186385771D01*
X203220057Y-185528628D02*
X203291485Y-185457200D01*
X203434342Y-185385771D01*
X203648628Y-185385771D01*
X203791485Y-185457200D01*
X203862914Y-185600057D01*
X203862914Y-186385771D01*
X205148628Y-186314342D02*
X205005771Y-186385771D01*
X204720057Y-186385771D01*
X204577200Y-186314342D01*
X204505771Y-186171485D01*
X204505771Y-185600057D01*
X204577200Y-185457200D01*
X204720057Y-185385771D01*
X205005771Y-185385771D01*
X205148628Y-185457200D01*
X205220057Y-185600057D01*
X205220057Y-185742914D01*
X204505771Y-185885771D01*
X206505771Y-186314342D02*
X206362914Y-186385771D01*
X206077200Y-186385771D01*
X205934342Y-186314342D01*
X205862914Y-186242914D01*
X205791485Y-186100057D01*
X205791485Y-185671485D01*
X205862914Y-185528628D01*
X205934342Y-185457200D01*
X206077200Y-185385771D01*
X206362914Y-185385771D01*
X206505771Y-185457200D01*
X206934342Y-185385771D02*
X207505771Y-185385771D01*
X207148628Y-184885771D02*
X207148628Y-186171485D01*
X207220057Y-186314342D01*
X207362914Y-186385771D01*
X207505771Y-186385771D01*
X208577200Y-186314342D02*
X208434342Y-186385771D01*
X208148628Y-186385771D01*
X208005771Y-186314342D01*
X207934342Y-186171485D01*
X207934342Y-185600057D01*
X208005771Y-185457200D01*
X208148628Y-185385771D01*
X208434342Y-185385771D01*
X208577200Y-185457200D01*
X208648628Y-185600057D01*
X208648628Y-185742914D01*
X207934342Y-185885771D01*
X209291485Y-186385771D02*
X209291485Y-184885771D01*
X210291485Y-184885771D01*
X210291485Y-186385771D01*
X209291485Y-186385771D01*
X211005771Y-186242914D02*
X211077200Y-186314342D01*
X211005771Y-186385771D01*
X210934342Y-186314342D01*
X211005771Y-186242914D01*
X211005771Y-186385771D01*
X211720057Y-186385771D02*
X211720057Y-184885771D01*
X211862914Y-185814342D02*
X212291485Y-186385771D01*
X212291485Y-185385771D02*
X211720057Y-185957200D01*
X212934342Y-186385771D02*
X212934342Y-185385771D01*
X212934342Y-184885771D02*
X212862914Y-184957200D01*
X212934342Y-185028628D01*
X213005771Y-184957200D01*
X212934342Y-184885771D01*
X212934342Y-185028628D01*
X214291485Y-186314342D02*
X214148628Y-186385771D01*
X213862914Y-186385771D01*
X213720057Y-186314342D01*
X213648628Y-186242914D01*
X213577200Y-186100057D01*
X213577200Y-185671485D01*
X213648628Y-185528628D01*
X213720057Y-185457200D01*
X213862914Y-185385771D01*
X214148628Y-185385771D01*
X214291485Y-185457200D01*
X215577200Y-186385771D02*
X215577200Y-185600057D01*
X215505771Y-185457200D01*
X215362914Y-185385771D01*
X215077200Y-185385771D01*
X214934342Y-185457200D01*
X215577200Y-186314342D02*
X215434342Y-186385771D01*
X215077200Y-186385771D01*
X214934342Y-186314342D01*
X214862914Y-186171485D01*
X214862914Y-186028628D01*
X214934342Y-185885771D01*
X215077200Y-185814342D01*
X215434342Y-185814342D01*
X215577200Y-185742914D01*
X216934342Y-186385771D02*
X216934342Y-184885771D01*
X216934342Y-186314342D02*
X216791485Y-186385771D01*
X216505771Y-186385771D01*
X216362914Y-186314342D01*
X216291485Y-186242914D01*
X216220057Y-186100057D01*
X216220057Y-185671485D01*
X216291485Y-185528628D01*
X216362914Y-185457200D01*
X216505771Y-185385771D01*
X216791485Y-185385771D01*
X216934342Y-185457200D01*
X217291485Y-186528628D02*
X218434342Y-186528628D01*
X218791485Y-185385771D02*
X218791485Y-186885771D01*
X218791485Y-185457200D02*
X218934342Y-185385771D01*
X219220057Y-185385771D01*
X219362914Y-185457200D01*
X219434342Y-185528628D01*
X219505771Y-185671485D01*
X219505771Y-186100057D01*
X219434342Y-186242914D01*
X219362914Y-186314342D01*
X219220057Y-186385771D01*
X218934342Y-186385771D01*
X218791485Y-186314342D01*
X220791485Y-186314342D02*
X220648628Y-186385771D01*
X220362914Y-186385771D01*
X220220057Y-186314342D01*
X220148628Y-186242914D01*
X220077200Y-186100057D01*
X220077200Y-185671485D01*
X220148628Y-185528628D01*
X220220057Y-185457200D01*
X220362914Y-185385771D01*
X220648628Y-185385771D01*
X220791485Y-185457200D01*
X221434342Y-186385771D02*
X221434342Y-184885771D01*
X221434342Y-185457200D02*
X221577200Y-185385771D01*
X221862914Y-185385771D01*
X222005771Y-185457200D01*
X222077200Y-185528628D01*
X222148628Y-185671485D01*
X222148628Y-186100057D01*
X222077200Y-186242914D01*
X222005771Y-186314342D01*
X221862914Y-186385771D01*
X221577200Y-186385771D01*
X221434342Y-186314342D01*
D10*
D11*
X177002200Y-181507200D02*
X285002200Y-181507200D01*
D10*
D11*
X178362914Y-183614342D02*
X178577200Y-183685771D01*
X178934342Y-183685771D01*
X179077200Y-183614342D01*
X179148628Y-183542914D01*
X179220057Y-183400057D01*
X179220057Y-183257200D01*
X179148628Y-183114342D01*
X179077200Y-183042914D01*
X178934342Y-182971485D01*
X178648628Y-182900057D01*
X178505771Y-182828628D01*
X178434342Y-182757200D01*
X178362914Y-182614342D01*
X178362914Y-182471485D01*
X178434342Y-182328628D01*
X178505771Y-182257200D01*
X178648628Y-182185771D01*
X179005771Y-182185771D01*
X179220057Y-182257200D01*
X179862914Y-183685771D02*
X179862914Y-182185771D01*
X180505771Y-183685771D02*
X180505771Y-182900057D01*
X180434342Y-182757200D01*
X180291485Y-182685771D01*
X180077200Y-182685771D01*
X179934342Y-182757200D01*
X179862914Y-182828628D01*
X181791485Y-183614342D02*
X181648628Y-183685771D01*
X181362914Y-183685771D01*
X181220057Y-183614342D01*
X181148628Y-183471485D01*
X181148628Y-182900057D01*
X181220057Y-182757200D01*
X181362914Y-182685771D01*
X181648628Y-182685771D01*
X181791485Y-182757200D01*
X181862914Y-182900057D01*
X181862914Y-183042914D01*
X181148628Y-183185771D01*
X183077200Y-183614342D02*
X182934342Y-183685771D01*
X182648628Y-183685771D01*
X182505771Y-183614342D01*
X182434342Y-183471485D01*
X182434342Y-182900057D01*
X182505771Y-182757200D01*
X182648628Y-182685771D01*
X182934342Y-182685771D01*
X183077200Y-182757200D01*
X183148628Y-182900057D01*
X183148628Y-183042914D01*
X182434342Y-183185771D01*
X183577200Y-182685771D02*
X184148628Y-182685771D01*
X183791485Y-182185771D02*
X183791485Y-183471485D01*
X183862914Y-183614342D01*
X184005771Y-183685771D01*
X184148628Y-183685771D01*
X184648628Y-183542914D02*
X184720057Y-183614342D01*
X184648628Y-183685771D01*
X184577200Y-183614342D01*
X184648628Y-183542914D01*
X184648628Y-183685771D01*
X184648628Y-182757200D02*
X184720057Y-182828628D01*
X184648628Y-182900057D01*
X184577200Y-182828628D01*
X184648628Y-182757200D01*
X184648628Y-182900057D01*
D10*
D12*
X178554342Y-180685771D02*
X178554342Y-179185771D01*
X179268628Y-180685771D02*
X179268628Y-179185771D01*
X180125771Y-180685771D01*
X180125771Y-179185771D01*
X180768628Y-180614342D02*
X180982914Y-180685771D01*
X181340057Y-180685771D01*
X181482914Y-180614342D01*
X181554342Y-180542914D01*
X181625771Y-180400057D01*
X181625771Y-180257200D01*
X181554342Y-180114342D01*
X181482914Y-180042914D01*
X181340057Y-179971485D01*
X181054342Y-179900057D01*
X180911485Y-179828628D01*
X180840057Y-179757200D01*
X180768628Y-179614342D01*
X180768628Y-179471485D01*
X180840057Y-179328628D01*
X180911485Y-179257200D01*
X181054342Y-179185771D01*
X181411485Y-179185771D01*
X181625771Y-179257200D01*
X182197200Y-180257200D02*
X182911485Y-180257200D01*
X182054342Y-180685771D02*
X182554342Y-179185771D01*
X183054342Y-180685771D01*
X184482914Y-179185771D02*
X185340057Y-179185771D01*
X184911485Y-180685771D02*
X184911485Y-179185771D01*
X186054342Y-180685771D02*
X185911485Y-180614342D01*
X185840057Y-180542914D01*
X185768628Y-180400057D01*
X185768628Y-179971485D01*
X185840057Y-179828628D01*
X185911485Y-179757200D01*
X186054342Y-179685771D01*
X186268628Y-179685771D01*
X186411485Y-179757200D01*
X186482914Y-179828628D01*
X186554342Y-179971485D01*
X186554342Y-180400057D01*
X186482914Y-180542914D01*
X186411485Y-180614342D01*
X186268628Y-180685771D01*
X186054342Y-180685771D01*
X187840057Y-179685771D02*
X187840057Y-180685771D01*
X187197200Y-179685771D02*
X187197200Y-180471485D01*
X187268628Y-180614342D01*
X187411485Y-180685771D01*
X187625771Y-180685771D01*
X187768628Y-180614342D01*
X187840057Y-180542914D01*
X188768628Y-180685771D02*
X188625771Y-180614342D01*
X188554342Y-180471485D01*
X188554342Y-179185771D01*
X189554342Y-180685771D02*
X189411485Y-180614342D01*
X189340057Y-180542914D01*
X189268628Y-180400057D01*
X189268628Y-179971485D01*
X189340057Y-179828628D01*
X189411485Y-179757200D01*
X189554342Y-179685771D01*
X189768628Y-179685771D01*
X189911485Y-179757200D01*
X189982914Y-179828628D01*
X190054342Y-179971485D01*
X190054342Y-180400057D01*
X189982914Y-180542914D01*
X189911485Y-180614342D01*
X189768628Y-180685771D01*
X189554342Y-180685771D01*
X191340057Y-179685771D02*
X191340057Y-180685771D01*
X190697200Y-179685771D02*
X190697200Y-180471485D01*
X190768628Y-180614342D01*
X190911485Y-180685771D01*
X191125771Y-180685771D01*
X191268628Y-180614342D01*
X191340057Y-180542914D01*
X191982914Y-180614342D02*
X192125771Y-180685771D01*
X192411485Y-180685771D01*
X192554342Y-180614342D01*
X192625771Y-180471485D01*
X192625771Y-180400057D01*
X192554342Y-180257200D01*
X192411485Y-180185771D01*
X192197200Y-180185771D01*
X192054342Y-180114342D01*
X191982914Y-179971485D01*
X191982914Y-179900057D01*
X192054342Y-179757200D01*
X192197200Y-179685771D01*
X192411485Y-179685771D01*
X192554342Y-179757200D01*
X193840057Y-180614342D02*
X193697200Y-180685771D01*
X193411485Y-180685771D01*
X193268628Y-180614342D01*
X193197200Y-180471485D01*
X193197200Y-179900057D01*
X193268628Y-179757200D01*
X193411485Y-179685771D01*
X193697200Y-179685771D01*
X193840057Y-179757200D01*
X193911485Y-179900057D01*
X193911485Y-180042914D01*
X193197200Y-180185771D01*
X195697200Y-180114342D02*
X196840057Y-180114342D01*
X198697200Y-180685771D02*
X198697200Y-179185771D01*
X199268628Y-179185771D01*
X199411485Y-179257200D01*
X199482914Y-179328628D01*
X199554342Y-179471485D01*
X199554342Y-179685771D01*
X199482914Y-179828628D01*
X199411485Y-179900057D01*
X199268628Y-179971485D01*
X198697200Y-179971485D01*
X199982914Y-179185771D02*
X200840057Y-179185771D01*
X200411485Y-180685771D02*
X200411485Y-179185771D01*
X201340057Y-180685771D02*
X201340057Y-179185771D01*
X201911485Y-179185771D01*
X202054342Y-179257200D01*
X202125771Y-179328628D01*
X202197200Y-179471485D01*
X202197200Y-179685771D01*
X202125771Y-179828628D01*
X202054342Y-179900057D01*
X201911485Y-179971485D01*
X201340057Y-179971485D01*
X203982914Y-180685771D02*
X203982914Y-179185771D01*
X204625771Y-180614342D02*
X204840057Y-180685771D01*
X205197200Y-180685771D01*
X205340057Y-180614342D01*
X205411485Y-180542914D01*
X205482914Y-180400057D01*
X205482914Y-180257200D01*
X205411485Y-180114342D01*
X205340057Y-180042914D01*
X205197200Y-179971485D01*
X204911485Y-179900057D01*
X204768628Y-179828628D01*
X204697200Y-179757200D01*
X204625771Y-179614342D01*
X204625771Y-179471485D01*
X204697200Y-179328628D01*
X204768628Y-179257200D01*
X204911485Y-179185771D01*
X205268628Y-179185771D01*
X205482914Y-179257200D01*
X206054342Y-180614342D02*
X206268628Y-180685771D01*
X206625771Y-180685771D01*
X206768628Y-180614342D01*
X206840057Y-180542914D01*
X206911485Y-180400057D01*
X206911485Y-180257200D01*
X206840057Y-180114342D01*
X206768628Y-180042914D01*
X206625771Y-179971485D01*
X206340057Y-179900057D01*
X206197200Y-179828628D01*
X206125771Y-179757200D01*
X206054342Y-179614342D01*
X206054342Y-179471485D01*
X206125771Y-179328628D01*
X206197200Y-179257200D01*
X206340057Y-179185771D01*
X206697200Y-179185771D01*
X206911485Y-179257200D01*
D10*
D11*
X178220057Y-176185771D02*
X179077200Y-176185771D01*
X178648628Y-177685771D02*
X178648628Y-176185771D01*
X179577200Y-177685771D02*
X179577200Y-176185771D01*
X180220057Y-177685771D02*
X180220057Y-176900057D01*
X180148628Y-176757200D01*
X180005771Y-176685771D01*
X179791485Y-176685771D01*
X179648628Y-176757200D01*
X179577200Y-176828628D01*
X181505771Y-177614342D02*
X181362914Y-177685771D01*
X181077200Y-177685771D01*
X180934342Y-177614342D01*
X180862914Y-177471485D01*
X180862914Y-176900057D01*
X180934342Y-176757200D01*
X181077200Y-176685771D01*
X181362914Y-176685771D01*
X181505771Y-176757200D01*
X181577200Y-176900057D01*
X181577200Y-177042914D01*
X180862914Y-177185771D01*
X181362914Y-176114342D02*
X181148628Y-176328628D01*
X182434342Y-177685771D02*
X182291485Y-177614342D01*
X182220057Y-177542914D01*
X182148628Y-177400057D01*
X182148628Y-176971485D01*
X182220057Y-176828628D01*
X182291485Y-176757200D01*
X182434342Y-176685771D01*
X182648628Y-176685771D01*
X182791485Y-176757200D01*
X182862914Y-176828628D01*
X182934342Y-176971485D01*
X182934342Y-177400057D01*
X182862914Y-177542914D01*
X182791485Y-177614342D01*
X182648628Y-177685771D01*
X182434342Y-177685771D01*
X185220057Y-176900057D02*
X185434342Y-176971485D01*
X185505771Y-177042914D01*
X185577200Y-177185771D01*
X185577200Y-177400057D01*
X185505771Y-177542914D01*
X185434342Y-177614342D01*
X185291485Y-177685771D01*
X184720057Y-177685771D01*
X184720057Y-176185771D01*
X185220057Y-176185771D01*
X185362914Y-176257200D01*
X185434342Y-176328628D01*
X185505771Y-176471485D01*
X185505771Y-176614342D01*
X185434342Y-176757200D01*
X185362914Y-176828628D01*
X185220057Y-176900057D01*
X184720057Y-176900057D01*
X186220057Y-176185771D02*
X186220057Y-177400057D01*
X186291485Y-177542914D01*
X186362914Y-177614342D01*
X186505771Y-177685771D01*
X186791485Y-177685771D01*
X186934342Y-177614342D01*
X187005771Y-177542914D01*
X187077200Y-177400057D01*
X187077200Y-176185771D01*
X187791485Y-176900057D02*
X188291485Y-176900057D01*
X188505771Y-177685771D02*
X187791485Y-177685771D01*
X187791485Y-176185771D01*
X188505771Y-176185771D01*
X189148628Y-177685771D02*
X189148628Y-176185771D01*
X190005771Y-177685771D01*
X190005771Y-176185771D01*
X191005771Y-176185771D02*
X191291485Y-176185771D01*
X191434342Y-176257200D01*
X191577200Y-176400057D01*
X191648628Y-176685771D01*
X191648628Y-177185771D01*
X191577200Y-177471485D01*
X191434342Y-177614342D01*
X191291485Y-177685771D01*
X191005771Y-177685771D01*
X190862914Y-177614342D01*
X190720057Y-177471485D01*
X190648628Y-177185771D01*
X190648628Y-176685771D01*
X190720057Y-176400057D01*
X190862914Y-176257200D01*
X191005771Y-176185771D01*
X194577200Y-176685771D02*
X193434342Y-177114342D01*
X194577200Y-177542914D01*
X195077200Y-176685771D02*
X195648628Y-176685771D01*
X195291485Y-176185771D02*
X195291485Y-177471485D01*
X195362914Y-177614342D01*
X195505771Y-177685771D01*
X195648628Y-177685771D01*
X196148628Y-177685771D02*
X196148628Y-176185771D01*
X196148628Y-176757200D02*
X196291485Y-176685771D01*
X196577200Y-176685771D01*
X196720057Y-176757200D01*
X196791485Y-176828628D01*
X196862914Y-176971485D01*
X196862914Y-177400057D01*
X196791485Y-177542914D01*
X196720057Y-177614342D01*
X196577200Y-177685771D01*
X196291485Y-177685771D01*
X196148628Y-177614342D01*
X198148628Y-176685771D02*
X198148628Y-177685771D01*
X197505771Y-176685771D02*
X197505771Y-177471485D01*
X197577200Y-177614342D01*
X197720057Y-177685771D01*
X197934342Y-177685771D01*
X198077200Y-177614342D01*
X198148628Y-177542914D01*
X199434342Y-177614342D02*
X199291485Y-177685771D01*
X199005771Y-177685771D01*
X198862914Y-177614342D01*
X198791485Y-177471485D01*
X198791485Y-176900057D01*
X198862914Y-176757200D01*
X199005771Y-176685771D01*
X199291485Y-176685771D01*
X199434342Y-176757200D01*
X199505771Y-176900057D01*
X199505771Y-177042914D01*
X198791485Y-177185771D01*
X200148628Y-176685771D02*
X200148628Y-177685771D01*
X200148628Y-176828628D02*
X200220057Y-176757200D01*
X200362914Y-176685771D01*
X200577200Y-176685771D01*
X200720057Y-176757200D01*
X200791485Y-176900057D01*
X200791485Y-177685771D01*
X201720057Y-177685771D02*
X201577200Y-177614342D01*
X201505771Y-177542914D01*
X201434342Y-177400057D01*
X201434342Y-176971485D01*
X201505771Y-176828628D01*
X201577200Y-176757200D01*
X201720057Y-176685771D01*
X201934342Y-176685771D01*
X202077200Y-176757200D01*
X202148628Y-176828628D01*
X202220057Y-176971485D01*
X202220057Y-177400057D01*
X202148628Y-177542914D01*
X202077200Y-177614342D01*
X201934342Y-177685771D01*
X201720057Y-177685771D01*
X203791485Y-176971485D02*
X203720057Y-176900057D01*
X203577200Y-176828628D01*
X203434342Y-176828628D01*
X203291485Y-176900057D01*
X203220057Y-176971485D01*
X203148628Y-177114342D01*
X203148628Y-177257200D01*
X203220057Y-177400057D01*
X203291485Y-177471485D01*
X203434342Y-177542914D01*
X203577200Y-177542914D01*
X203720057Y-177471485D01*
X203791485Y-177400057D01*
X203791485Y-176828628D02*
X203791485Y-177400057D01*
X203862914Y-177471485D01*
X203934342Y-177471485D01*
X204077200Y-177400057D01*
X204148628Y-177257200D01*
X204148628Y-176900057D01*
X204005771Y-176685771D01*
X203791485Y-176542914D01*
X203505771Y-176471485D01*
X203220057Y-176542914D01*
X203005771Y-176685771D01*
X202862914Y-176900057D01*
X202791485Y-177185771D01*
X202862914Y-177471485D01*
X203005771Y-177685771D01*
X203220057Y-177828628D01*
X203505771Y-177900057D01*
X203791485Y-177828628D01*
X204005771Y-177685771D01*
X205362914Y-177614342D02*
X205220057Y-177685771D01*
X204934342Y-177685771D01*
X204791485Y-177614342D01*
X204720057Y-177471485D01*
X204720057Y-176900057D01*
X204791485Y-176757200D01*
X204934342Y-176685771D01*
X205220057Y-176685771D01*
X205362914Y-176757200D01*
X205434342Y-176900057D01*
X205434342Y-177042914D01*
X204720057Y-177185771D01*
X205862914Y-176685771D02*
X206434342Y-176685771D01*
X206077200Y-176185771D02*
X206077200Y-177471485D01*
X206148628Y-177614342D01*
X206291485Y-177685771D01*
X206434342Y-177685771D01*
X207577200Y-176685771D02*
X207577200Y-177685771D01*
X206934342Y-176685771D02*
X206934342Y-177471485D01*
X207005771Y-177614342D01*
X207148628Y-177685771D01*
X207362914Y-177685771D01*
X207505771Y-177614342D01*
X207577200Y-177542914D01*
X208934342Y-177685771D02*
X208934342Y-176185771D01*
X208934342Y-177614342D02*
X208791485Y-177685771D01*
X208505771Y-177685771D01*
X208362914Y-177614342D01*
X208291485Y-177542914D01*
X208220057Y-177400057D01*
X208220057Y-176971485D01*
X208291485Y-176828628D01*
X208362914Y-176757200D01*
X208505771Y-176685771D01*
X208791485Y-176685771D01*
X208934342Y-176757200D01*
X209648628Y-177542914D02*
X209720057Y-177614342D01*
X209648628Y-177685771D01*
X209577200Y-177614342D01*
X209648628Y-177542914D01*
X209648628Y-177685771D01*
X210362914Y-177685771D02*
X210362914Y-176685771D01*
X210362914Y-176185771D02*
X210291485Y-176257200D01*
X210362914Y-176328628D01*
X210434342Y-176257200D01*
X210362914Y-176185771D01*
X210362914Y-176328628D01*
X211077200Y-176685771D02*
X211077200Y-177685771D01*
X211077200Y-176828628D02*
X211148628Y-176757200D01*
X211291485Y-176685771D01*
X211505771Y-176685771D01*
X211648628Y-176757200D01*
X211720057Y-176900057D01*
X211720057Y-177685771D01*
X212362914Y-177614342D02*
X212505771Y-177685771D01*
X212791485Y-177685771D01*
X212934342Y-177614342D01*
X213005771Y-177471485D01*
X213005771Y-177400057D01*
X212934342Y-177257200D01*
X212791485Y-177185771D01*
X212577200Y-177185771D01*
X212434342Y-177114342D01*
X212362914Y-176971485D01*
X212362914Y-176900057D01*
X212434342Y-176757200D01*
X212577200Y-176685771D01*
X212791485Y-176685771D01*
X212934342Y-176757200D01*
X214291485Y-177685771D02*
X214291485Y-176900057D01*
X214220057Y-176757200D01*
X214077200Y-176685771D01*
X213791485Y-176685771D01*
X213648628Y-176757200D01*
X214291485Y-177614342D02*
X214148628Y-177685771D01*
X213791485Y-177685771D01*
X213648628Y-177614342D01*
X213577200Y-177471485D01*
X213577200Y-177328628D01*
X213648628Y-177185771D01*
X213791485Y-177114342D01*
X214148628Y-177114342D01*
X214291485Y-177042914D01*
X215005771Y-177114342D02*
X216148628Y-177114342D01*
X216648628Y-176685771D02*
X217220057Y-176685771D01*
X216862914Y-176185771D02*
X216862914Y-177471485D01*
X216934342Y-177614342D01*
X217077200Y-177685771D01*
X217220057Y-177685771D01*
X217934342Y-177685771D02*
X217791485Y-177614342D01*
X217720057Y-177542914D01*
X217648628Y-177400057D01*
X217648628Y-176971485D01*
X217720057Y-176828628D01*
X217791485Y-176757200D01*
X217934342Y-176685771D01*
X218148628Y-176685771D01*
X218291485Y-176757200D01*
X218362914Y-176828628D01*
X218434342Y-176971485D01*
X218434342Y-177400057D01*
X218362914Y-177542914D01*
X218291485Y-177614342D01*
X218148628Y-177685771D01*
X217934342Y-177685771D01*
X219720057Y-176685771D02*
X219720057Y-177685771D01*
X219077200Y-176685771D02*
X219077200Y-177471485D01*
X219148628Y-177614342D01*
X219291485Y-177685771D01*
X219505771Y-177685771D01*
X219648628Y-177614342D01*
X219720057Y-177542914D01*
X220648628Y-177685771D02*
X220505771Y-177614342D01*
X220434342Y-177471485D01*
X220434342Y-176185771D01*
X221434342Y-177685771D02*
X221291485Y-177614342D01*
X221220057Y-177542914D01*
X221148628Y-177400057D01*
X221148628Y-176971485D01*
X221220057Y-176828628D01*
X221291485Y-176757200D01*
X221434342Y-176685771D01*
X221648628Y-176685771D01*
X221791485Y-176757200D01*
X221862914Y-176828628D01*
X221934342Y-176971485D01*
X221934342Y-177400057D01*
X221862914Y-177542914D01*
X221791485Y-177614342D01*
X221648628Y-177685771D01*
X221434342Y-177685771D01*
X223220057Y-176685771D02*
X223220057Y-177685771D01*
X222577200Y-176685771D02*
X222577200Y-177471485D01*
X222648628Y-177614342D01*
X222791485Y-177685771D01*
X223005771Y-177685771D01*
X223148628Y-177614342D01*
X223220057Y-177542914D01*
X223862914Y-177614342D02*
X224005771Y-177685771D01*
X224291485Y-177685771D01*
X224434342Y-177614342D01*
X224505771Y-177471485D01*
X224505771Y-177400057D01*
X224434342Y-177257200D01*
X224291485Y-177185771D01*
X224077200Y-177185771D01*
X223934342Y-177114342D01*
X223862914Y-176971485D01*
X223862914Y-176900057D01*
X223934342Y-176757200D01*
X224077200Y-176685771D01*
X224291485Y-176685771D01*
X224434342Y-176757200D01*
X225720057Y-177614342D02*
X225577200Y-177685771D01*
X225291485Y-177685771D01*
X225148628Y-177614342D01*
X225077200Y-177471485D01*
X225077200Y-176900057D01*
X225148628Y-176757200D01*
X225291485Y-176685771D01*
X225577200Y-176685771D01*
X225720057Y-176757200D01*
X225791485Y-176900057D01*
X225791485Y-177042914D01*
X225077200Y-177185771D01*
X226434342Y-177542914D02*
X226505771Y-177614342D01*
X226434342Y-177685771D01*
X226362914Y-177614342D01*
X226434342Y-177542914D01*
X226434342Y-177685771D01*
X226934342Y-176685771D02*
X227505771Y-176685771D01*
X227148628Y-177685771D02*
X227148628Y-176400057D01*
X227220057Y-176257200D01*
X227362914Y-176185771D01*
X227505771Y-176185771D01*
X228005771Y-177685771D02*
X228005771Y-176685771D01*
X228005771Y-176971485D02*
X228077200Y-176828628D01*
X228148628Y-176757200D01*
X228291485Y-176685771D01*
X228434342Y-176685771D01*
D10*
D11*
X197002200Y-191507200D02*
X197002200Y-194507200D01*
D10*
D11*
X261002200Y-191507200D02*
X261002200Y-198007200D01*
D14*
G04 #@! TO.C,U3*
X102236000Y-96718000D02*
X136236000Y-96718000D01*
X136236000Y-96718000D02*
X136236000Y-46718000D01*
X136236000Y-46718000D02*
X102236000Y-46718000D01*
X102236000Y-46718000D02*
X102236000Y-96718000D01*
G04 #@! TO.C,C1*
X97576000Y-118149000D02*
X97576000Y-118464000D01*
X97576000Y-115724000D02*
X97576000Y-116039000D01*
X92336000Y-118149000D02*
X92336000Y-118464000D01*
X92336000Y-115724000D02*
X92336000Y-116039000D01*
X92336000Y-118464000D02*
X97576000Y-118464000D01*
X92336000Y-115724000D02*
X97576000Y-115724000D01*
G04 #@! TO.C,C2*
X100664000Y-95520000D02*
G75*
G03X100664000Y-95520000I-2620000J0D01*
G01*
X99084000Y-95520000D02*
X100624000Y-95520000D01*
X95464000Y-95520000D02*
X97004000Y-95520000D01*
X99084000Y-95480000D02*
X100624000Y-95480000D01*
X95464000Y-95480000D02*
X97004000Y-95480000D01*
X95465000Y-95440000D02*
X97004000Y-95440000D01*
X99084000Y-95440000D02*
X100623000Y-95440000D01*
X95466000Y-95400000D02*
X97004000Y-95400000D01*
X99084000Y-95400000D02*
X100622000Y-95400000D01*
X95468000Y-95360000D02*
X97004000Y-95360000D01*
X99084000Y-95360000D02*
X100620000Y-95360000D01*
X95471000Y-95320000D02*
X97004000Y-95320000D01*
X99084000Y-95320000D02*
X100617000Y-95320000D01*
X95475000Y-95280000D02*
X97004000Y-95280000D01*
X99084000Y-95280000D02*
X100613000Y-95280000D01*
X95479000Y-95240000D02*
X97004000Y-95240000D01*
X99084000Y-95240000D02*
X100609000Y-95240000D01*
X95483000Y-95200000D02*
X97004000Y-95200000D01*
X99084000Y-95200000D02*
X100605000Y-95200000D01*
X95488000Y-95160000D02*
X97004000Y-95160000D01*
X99084000Y-95160000D02*
X100600000Y-95160000D01*
X95494000Y-95120000D02*
X97004000Y-95120000D01*
X99084000Y-95120000D02*
X100594000Y-95120000D01*
X95501000Y-95080000D02*
X97004000Y-95080000D01*
X99084000Y-95080000D02*
X100587000Y-95080000D01*
X95508000Y-95040000D02*
X97004000Y-95040000D01*
X99084000Y-95040000D02*
X100580000Y-95040000D01*
X95516000Y-95000000D02*
X97004000Y-95000000D01*
X99084000Y-95000000D02*
X100572000Y-95000000D01*
X95524000Y-94960000D02*
X97004000Y-94960000D01*
X99084000Y-94960000D02*
X100564000Y-94960000D01*
X95533000Y-94920000D02*
X97004000Y-94920000D01*
X99084000Y-94920000D02*
X100555000Y-94920000D01*
X95543000Y-94880000D02*
X97004000Y-94880000D01*
X99084000Y-94880000D02*
X100545000Y-94880000D01*
X95553000Y-94840000D02*
X97004000Y-94840000D01*
X99084000Y-94840000D02*
X100535000Y-94840000D01*
X95564000Y-94799000D02*
X97004000Y-94799000D01*
X99084000Y-94799000D02*
X100524000Y-94799000D01*
X95576000Y-94759000D02*
X97004000Y-94759000D01*
X99084000Y-94759000D02*
X100512000Y-94759000D01*
X95589000Y-94719000D02*
X97004000Y-94719000D01*
X99084000Y-94719000D02*
X100499000Y-94719000D01*
X95602000Y-94679000D02*
X97004000Y-94679000D01*
X99084000Y-94679000D02*
X100486000Y-94679000D01*
X95616000Y-94639000D02*
X97004000Y-94639000D01*
X99084000Y-94639000D02*
X100472000Y-94639000D01*
X95630000Y-94599000D02*
X97004000Y-94599000D01*
X99084000Y-94599000D02*
X100458000Y-94599000D01*
X95646000Y-94559000D02*
X97004000Y-94559000D01*
X99084000Y-94559000D02*
X100442000Y-94559000D01*
X95662000Y-94519000D02*
X97004000Y-94519000D01*
X99084000Y-94519000D02*
X100426000Y-94519000D01*
X95679000Y-94479000D02*
X97004000Y-94479000D01*
X99084000Y-94479000D02*
X100409000Y-94479000D01*
X95696000Y-94439000D02*
X97004000Y-94439000D01*
X99084000Y-94439000D02*
X100392000Y-94439000D01*
X95715000Y-94399000D02*
X97004000Y-94399000D01*
X99084000Y-94399000D02*
X100373000Y-94399000D01*
X95734000Y-94359000D02*
X97004000Y-94359000D01*
X99084000Y-94359000D02*
X100354000Y-94359000D01*
X95754000Y-94319000D02*
X97004000Y-94319000D01*
X99084000Y-94319000D02*
X100334000Y-94319000D01*
X95776000Y-94279000D02*
X97004000Y-94279000D01*
X99084000Y-94279000D02*
X100312000Y-94279000D01*
X95797000Y-94239000D02*
X97004000Y-94239000D01*
X99084000Y-94239000D02*
X100291000Y-94239000D01*
X95820000Y-94199000D02*
X97004000Y-94199000D01*
X99084000Y-94199000D02*
X100268000Y-94199000D01*
X95844000Y-94159000D02*
X97004000Y-94159000D01*
X99084000Y-94159000D02*
X100244000Y-94159000D01*
X95869000Y-94119000D02*
X97004000Y-94119000D01*
X99084000Y-94119000D02*
X100219000Y-94119000D01*
X95895000Y-94079000D02*
X97004000Y-94079000D01*
X99084000Y-94079000D02*
X100193000Y-94079000D01*
X95922000Y-94039000D02*
X97004000Y-94039000D01*
X99084000Y-94039000D02*
X100166000Y-94039000D01*
X95949000Y-93999000D02*
X97004000Y-93999000D01*
X99084000Y-93999000D02*
X100139000Y-93999000D01*
X95979000Y-93959000D02*
X97004000Y-93959000D01*
X99084000Y-93959000D02*
X100109000Y-93959000D01*
X96009000Y-93919000D02*
X97004000Y-93919000D01*
X99084000Y-93919000D02*
X100079000Y-93919000D01*
X96040000Y-93879000D02*
X97004000Y-93879000D01*
X99084000Y-93879000D02*
X100048000Y-93879000D01*
X96073000Y-93839000D02*
X97004000Y-93839000D01*
X99084000Y-93839000D02*
X100015000Y-93839000D01*
X96107000Y-93799000D02*
X97004000Y-93799000D01*
X99084000Y-93799000D02*
X99981000Y-93799000D01*
X96143000Y-93759000D02*
X97004000Y-93759000D01*
X99084000Y-93759000D02*
X99945000Y-93759000D01*
X96180000Y-93719000D02*
X97004000Y-93719000D01*
X99084000Y-93719000D02*
X99908000Y-93719000D01*
X96218000Y-93679000D02*
X97004000Y-93679000D01*
X99084000Y-93679000D02*
X99870000Y-93679000D01*
X96259000Y-93639000D02*
X97004000Y-93639000D01*
X99084000Y-93639000D02*
X99829000Y-93639000D01*
X96301000Y-93599000D02*
X97004000Y-93599000D01*
X99084000Y-93599000D02*
X99787000Y-93599000D01*
X96345000Y-93559000D02*
X97004000Y-93559000D01*
X99084000Y-93559000D02*
X99743000Y-93559000D01*
X96391000Y-93519000D02*
X97004000Y-93519000D01*
X99084000Y-93519000D02*
X99697000Y-93519000D01*
X96439000Y-93479000D02*
X99649000Y-93479000D01*
X96490000Y-93439000D02*
X99598000Y-93439000D01*
X96544000Y-93399000D02*
X99544000Y-93399000D01*
X96601000Y-93359000D02*
X99487000Y-93359000D01*
X96661000Y-93319000D02*
X99427000Y-93319000D01*
X96725000Y-93279000D02*
X99363000Y-93279000D01*
X96793000Y-93239000D02*
X99295000Y-93239000D01*
X96866000Y-93199000D02*
X99222000Y-93199000D01*
X96946000Y-93159000D02*
X99142000Y-93159000D01*
X97033000Y-93119000D02*
X99055000Y-93119000D01*
X97129000Y-93079000D02*
X98959000Y-93079000D01*
X97239000Y-93039000D02*
X98849000Y-93039000D01*
X97367000Y-92999000D02*
X98721000Y-92999000D01*
X97526000Y-92959000D02*
X98562000Y-92959000D01*
X97760000Y-92919000D02*
X98328000Y-92919000D01*
X96569000Y-98324775D02*
X96569000Y-97824775D01*
X96319000Y-98074775D02*
X96819000Y-98074775D01*
G04 #@! TO.C,C3*
X80317000Y-91470775D02*
X80817000Y-91470775D01*
X80567000Y-91720775D02*
X80567000Y-91220775D01*
X81758000Y-86315000D02*
X82326000Y-86315000D01*
X81524000Y-86355000D02*
X82560000Y-86355000D01*
X81365000Y-86395000D02*
X82719000Y-86395000D01*
X81237000Y-86435000D02*
X82847000Y-86435000D01*
X81127000Y-86475000D02*
X82957000Y-86475000D01*
X81031000Y-86515000D02*
X83053000Y-86515000D01*
X80944000Y-86555000D02*
X83140000Y-86555000D01*
X80864000Y-86595000D02*
X83220000Y-86595000D01*
X80791000Y-86635000D02*
X83293000Y-86635000D01*
X80723000Y-86675000D02*
X83361000Y-86675000D01*
X80659000Y-86715000D02*
X83425000Y-86715000D01*
X80599000Y-86755000D02*
X83485000Y-86755000D01*
X80542000Y-86795000D02*
X83542000Y-86795000D01*
X80488000Y-86835000D02*
X83596000Y-86835000D01*
X80437000Y-86875000D02*
X83647000Y-86875000D01*
X83082000Y-86915000D02*
X83695000Y-86915000D01*
X80389000Y-86915000D02*
X81002000Y-86915000D01*
X83082000Y-86955000D02*
X83741000Y-86955000D01*
X80343000Y-86955000D02*
X81002000Y-86955000D01*
X83082000Y-86995000D02*
X83785000Y-86995000D01*
X80299000Y-86995000D02*
X81002000Y-86995000D01*
X83082000Y-87035000D02*
X83827000Y-87035000D01*
X80257000Y-87035000D02*
X81002000Y-87035000D01*
X83082000Y-87075000D02*
X83868000Y-87075000D01*
X80216000Y-87075000D02*
X81002000Y-87075000D01*
X83082000Y-87115000D02*
X83906000Y-87115000D01*
X80178000Y-87115000D02*
X81002000Y-87115000D01*
X83082000Y-87155000D02*
X83943000Y-87155000D01*
X80141000Y-87155000D02*
X81002000Y-87155000D01*
X83082000Y-87195000D02*
X83979000Y-87195000D01*
X80105000Y-87195000D02*
X81002000Y-87195000D01*
X83082000Y-87235000D02*
X84013000Y-87235000D01*
X80071000Y-87235000D02*
X81002000Y-87235000D01*
X83082000Y-87275000D02*
X84046000Y-87275000D01*
X80038000Y-87275000D02*
X81002000Y-87275000D01*
X83082000Y-87315000D02*
X84077000Y-87315000D01*
X80007000Y-87315000D02*
X81002000Y-87315000D01*
X83082000Y-87355000D02*
X84107000Y-87355000D01*
X79977000Y-87355000D02*
X81002000Y-87355000D01*
X83082000Y-87395000D02*
X84137000Y-87395000D01*
X79947000Y-87395000D02*
X81002000Y-87395000D01*
X83082000Y-87435000D02*
X84164000Y-87435000D01*
X79920000Y-87435000D02*
X81002000Y-87435000D01*
X83082000Y-87475000D02*
X84191000Y-87475000D01*
X79893000Y-87475000D02*
X81002000Y-87475000D01*
X83082000Y-87515000D02*
X84217000Y-87515000D01*
X79867000Y-87515000D02*
X81002000Y-87515000D01*
X83082000Y-87555000D02*
X84242000Y-87555000D01*
X79842000Y-87555000D02*
X81002000Y-87555000D01*
X83082000Y-87595000D02*
X84266000Y-87595000D01*
X79818000Y-87595000D02*
X81002000Y-87595000D01*
X83082000Y-87635000D02*
X84289000Y-87635000D01*
X79795000Y-87635000D02*
X81002000Y-87635000D01*
X83082000Y-87675000D02*
X84310000Y-87675000D01*
X79774000Y-87675000D02*
X81002000Y-87675000D01*
X83082000Y-87715000D02*
X84332000Y-87715000D01*
X79752000Y-87715000D02*
X81002000Y-87715000D01*
X83082000Y-87755000D02*
X84352000Y-87755000D01*
X79732000Y-87755000D02*
X81002000Y-87755000D01*
X83082000Y-87795000D02*
X84371000Y-87795000D01*
X79713000Y-87795000D02*
X81002000Y-87795000D01*
X83082000Y-87835000D02*
X84390000Y-87835000D01*
X79694000Y-87835000D02*
X81002000Y-87835000D01*
X83082000Y-87875000D02*
X84407000Y-87875000D01*
X79677000Y-87875000D02*
X81002000Y-87875000D01*
X83082000Y-87915000D02*
X84424000Y-87915000D01*
X79660000Y-87915000D02*
X81002000Y-87915000D01*
X83082000Y-87955000D02*
X84440000Y-87955000D01*
X79644000Y-87955000D02*
X81002000Y-87955000D01*
X83082000Y-87995000D02*
X84456000Y-87995000D01*
X79628000Y-87995000D02*
X81002000Y-87995000D01*
X83082000Y-88035000D02*
X84470000Y-88035000D01*
X79614000Y-88035000D02*
X81002000Y-88035000D01*
X83082000Y-88075000D02*
X84484000Y-88075000D01*
X79600000Y-88075000D02*
X81002000Y-88075000D01*
X83082000Y-88115000D02*
X84497000Y-88115000D01*
X79587000Y-88115000D02*
X81002000Y-88115000D01*
X83082000Y-88155000D02*
X84510000Y-88155000D01*
X79574000Y-88155000D02*
X81002000Y-88155000D01*
X83082000Y-88195000D02*
X84522000Y-88195000D01*
X79562000Y-88195000D02*
X81002000Y-88195000D01*
X83082000Y-88236000D02*
X84533000Y-88236000D01*
X79551000Y-88236000D02*
X81002000Y-88236000D01*
X83082000Y-88276000D02*
X84543000Y-88276000D01*
X79541000Y-88276000D02*
X81002000Y-88276000D01*
X83082000Y-88316000D02*
X84553000Y-88316000D01*
X79531000Y-88316000D02*
X81002000Y-88316000D01*
X83082000Y-88356000D02*
X84562000Y-88356000D01*
X79522000Y-88356000D02*
X81002000Y-88356000D01*
X83082000Y-88396000D02*
X84570000Y-88396000D01*
X79514000Y-88396000D02*
X81002000Y-88396000D01*
X83082000Y-88436000D02*
X84578000Y-88436000D01*
X79506000Y-88436000D02*
X81002000Y-88436000D01*
X83082000Y-88476000D02*
X84585000Y-88476000D01*
X79499000Y-88476000D02*
X81002000Y-88476000D01*
X83082000Y-88516000D02*
X84592000Y-88516000D01*
X79492000Y-88516000D02*
X81002000Y-88516000D01*
X83082000Y-88556000D02*
X84598000Y-88556000D01*
X79486000Y-88556000D02*
X81002000Y-88556000D01*
X83082000Y-88596000D02*
X84603000Y-88596000D01*
X79481000Y-88596000D02*
X81002000Y-88596000D01*
X83082000Y-88636000D02*
X84607000Y-88636000D01*
X79477000Y-88636000D02*
X81002000Y-88636000D01*
X83082000Y-88676000D02*
X84611000Y-88676000D01*
X79473000Y-88676000D02*
X81002000Y-88676000D01*
X83082000Y-88716000D02*
X84615000Y-88716000D01*
X79469000Y-88716000D02*
X81002000Y-88716000D01*
X83082000Y-88756000D02*
X84618000Y-88756000D01*
X79466000Y-88756000D02*
X81002000Y-88756000D01*
X83082000Y-88796000D02*
X84620000Y-88796000D01*
X79464000Y-88796000D02*
X81002000Y-88796000D01*
X83082000Y-88836000D02*
X84621000Y-88836000D01*
X79463000Y-88836000D02*
X81002000Y-88836000D01*
X79462000Y-88876000D02*
X81002000Y-88876000D01*
X83082000Y-88876000D02*
X84622000Y-88876000D01*
X79462000Y-88916000D02*
X81002000Y-88916000D01*
X83082000Y-88916000D02*
X84622000Y-88916000D01*
X84662000Y-88916000D02*
G75*
G03X84662000Y-88916000I-2620000J0D01*
G01*
G04 #@! TO.C,C4*
X74048000Y-81942000D02*
X79288000Y-81942000D01*
X74048000Y-84682000D02*
X79288000Y-84682000D01*
X74048000Y-81942000D02*
X74048000Y-82257000D01*
X74048000Y-84367000D02*
X74048000Y-84682000D01*
X79288000Y-81942000D02*
X79288000Y-82257000D01*
X79288000Y-84367000D02*
X79288000Y-84682000D01*
G04 #@! TO.C,C5*
X91574000Y-46890000D02*
X96814000Y-46890000D01*
X91574000Y-49630000D02*
X96814000Y-49630000D01*
X91574000Y-46890000D02*
X91574000Y-47205000D01*
X91574000Y-49315000D02*
X91574000Y-49630000D01*
X96814000Y-46890000D02*
X96814000Y-47205000D01*
X96814000Y-49315000D02*
X96814000Y-49630000D01*
G04 #@! TO.C,C6*
X79288000Y-79541000D02*
X79288000Y-79856000D01*
X79288000Y-77116000D02*
X79288000Y-77431000D01*
X74048000Y-79541000D02*
X74048000Y-79856000D01*
X74048000Y-77116000D02*
X74048000Y-77431000D01*
X74048000Y-79856000D02*
X79288000Y-79856000D01*
X74048000Y-77116000D02*
X79288000Y-77116000D01*
G04 #@! TO.C,C7*
X91560000Y-61822000D02*
X86320000Y-61822000D01*
X91560000Y-59082000D02*
X86320000Y-59082000D01*
X91560000Y-61822000D02*
X91560000Y-61507000D01*
X91560000Y-59397000D02*
X91560000Y-59082000D01*
X86320000Y-61822000D02*
X86320000Y-61507000D01*
X86320000Y-59397000D02*
X86320000Y-59082000D01*
G04 #@! TO.C,C8*
X98845000Y-66762000D02*
X99160000Y-66762000D01*
X96420000Y-66762000D02*
X96735000Y-66762000D01*
X98845000Y-72002000D02*
X99160000Y-72002000D01*
X96420000Y-72002000D02*
X96735000Y-72002000D01*
X99160000Y-72002000D02*
X99160000Y-66762000D01*
X96420000Y-72002000D02*
X96420000Y-66762000D01*
G04 #@! TO.C,C9*
X100664000Y-89170000D02*
G75*
G03X100664000Y-89170000I-2620000J0D01*
G01*
X99084000Y-89170000D02*
X100624000Y-89170000D01*
X95464000Y-89170000D02*
X97004000Y-89170000D01*
X99084000Y-89130000D02*
X100624000Y-89130000D01*
X95464000Y-89130000D02*
X97004000Y-89130000D01*
X95465000Y-89090000D02*
X97004000Y-89090000D01*
X99084000Y-89090000D02*
X100623000Y-89090000D01*
X95466000Y-89050000D02*
X97004000Y-89050000D01*
X99084000Y-89050000D02*
X100622000Y-89050000D01*
X95468000Y-89010000D02*
X97004000Y-89010000D01*
X99084000Y-89010000D02*
X100620000Y-89010000D01*
X95471000Y-88970000D02*
X97004000Y-88970000D01*
X99084000Y-88970000D02*
X100617000Y-88970000D01*
X95475000Y-88930000D02*
X97004000Y-88930000D01*
X99084000Y-88930000D02*
X100613000Y-88930000D01*
X95479000Y-88890000D02*
X97004000Y-88890000D01*
X99084000Y-88890000D02*
X100609000Y-88890000D01*
X95483000Y-88850000D02*
X97004000Y-88850000D01*
X99084000Y-88850000D02*
X100605000Y-88850000D01*
X95488000Y-88810000D02*
X97004000Y-88810000D01*
X99084000Y-88810000D02*
X100600000Y-88810000D01*
X95494000Y-88770000D02*
X97004000Y-88770000D01*
X99084000Y-88770000D02*
X100594000Y-88770000D01*
X95501000Y-88730000D02*
X97004000Y-88730000D01*
X99084000Y-88730000D02*
X100587000Y-88730000D01*
X95508000Y-88690000D02*
X97004000Y-88690000D01*
X99084000Y-88690000D02*
X100580000Y-88690000D01*
X95516000Y-88650000D02*
X97004000Y-88650000D01*
X99084000Y-88650000D02*
X100572000Y-88650000D01*
X95524000Y-88610000D02*
X97004000Y-88610000D01*
X99084000Y-88610000D02*
X100564000Y-88610000D01*
X95533000Y-88570000D02*
X97004000Y-88570000D01*
X99084000Y-88570000D02*
X100555000Y-88570000D01*
X95543000Y-88530000D02*
X97004000Y-88530000D01*
X99084000Y-88530000D02*
X100545000Y-88530000D01*
X95553000Y-88490000D02*
X97004000Y-88490000D01*
X99084000Y-88490000D02*
X100535000Y-88490000D01*
X95564000Y-88449000D02*
X97004000Y-88449000D01*
X99084000Y-88449000D02*
X100524000Y-88449000D01*
X95576000Y-88409000D02*
X97004000Y-88409000D01*
X99084000Y-88409000D02*
X100512000Y-88409000D01*
X95589000Y-88369000D02*
X97004000Y-88369000D01*
X99084000Y-88369000D02*
X100499000Y-88369000D01*
X95602000Y-88329000D02*
X97004000Y-88329000D01*
X99084000Y-88329000D02*
X100486000Y-88329000D01*
X95616000Y-88289000D02*
X97004000Y-88289000D01*
X99084000Y-88289000D02*
X100472000Y-88289000D01*
X95630000Y-88249000D02*
X97004000Y-88249000D01*
X99084000Y-88249000D02*
X100458000Y-88249000D01*
X95646000Y-88209000D02*
X97004000Y-88209000D01*
X99084000Y-88209000D02*
X100442000Y-88209000D01*
X95662000Y-88169000D02*
X97004000Y-88169000D01*
X99084000Y-88169000D02*
X100426000Y-88169000D01*
X95679000Y-88129000D02*
X97004000Y-88129000D01*
X99084000Y-88129000D02*
X100409000Y-88129000D01*
X95696000Y-88089000D02*
X97004000Y-88089000D01*
X99084000Y-88089000D02*
X100392000Y-88089000D01*
X95715000Y-88049000D02*
X97004000Y-88049000D01*
X99084000Y-88049000D02*
X100373000Y-88049000D01*
X95734000Y-88009000D02*
X97004000Y-88009000D01*
X99084000Y-88009000D02*
X100354000Y-88009000D01*
X95754000Y-87969000D02*
X97004000Y-87969000D01*
X99084000Y-87969000D02*
X100334000Y-87969000D01*
X95776000Y-87929000D02*
X97004000Y-87929000D01*
X99084000Y-87929000D02*
X100312000Y-87929000D01*
X95797000Y-87889000D02*
X97004000Y-87889000D01*
X99084000Y-87889000D02*
X100291000Y-87889000D01*
X95820000Y-87849000D02*
X97004000Y-87849000D01*
X99084000Y-87849000D02*
X100268000Y-87849000D01*
X95844000Y-87809000D02*
X97004000Y-87809000D01*
X99084000Y-87809000D02*
X100244000Y-87809000D01*
X95869000Y-87769000D02*
X97004000Y-87769000D01*
X99084000Y-87769000D02*
X100219000Y-87769000D01*
X95895000Y-87729000D02*
X97004000Y-87729000D01*
X99084000Y-87729000D02*
X100193000Y-87729000D01*
X95922000Y-87689000D02*
X97004000Y-87689000D01*
X99084000Y-87689000D02*
X100166000Y-87689000D01*
X95949000Y-87649000D02*
X97004000Y-87649000D01*
X99084000Y-87649000D02*
X100139000Y-87649000D01*
X95979000Y-87609000D02*
X97004000Y-87609000D01*
X99084000Y-87609000D02*
X100109000Y-87609000D01*
X96009000Y-87569000D02*
X97004000Y-87569000D01*
X99084000Y-87569000D02*
X100079000Y-87569000D01*
X96040000Y-87529000D02*
X97004000Y-87529000D01*
X99084000Y-87529000D02*
X100048000Y-87529000D01*
X96073000Y-87489000D02*
X97004000Y-87489000D01*
X99084000Y-87489000D02*
X100015000Y-87489000D01*
X96107000Y-87449000D02*
X97004000Y-87449000D01*
X99084000Y-87449000D02*
X99981000Y-87449000D01*
X96143000Y-87409000D02*
X97004000Y-87409000D01*
X99084000Y-87409000D02*
X99945000Y-87409000D01*
X96180000Y-87369000D02*
X97004000Y-87369000D01*
X99084000Y-87369000D02*
X99908000Y-87369000D01*
X96218000Y-87329000D02*
X97004000Y-87329000D01*
X99084000Y-87329000D02*
X99870000Y-87329000D01*
X96259000Y-87289000D02*
X97004000Y-87289000D01*
X99084000Y-87289000D02*
X99829000Y-87289000D01*
X96301000Y-87249000D02*
X97004000Y-87249000D01*
X99084000Y-87249000D02*
X99787000Y-87249000D01*
X96345000Y-87209000D02*
X97004000Y-87209000D01*
X99084000Y-87209000D02*
X99743000Y-87209000D01*
X96391000Y-87169000D02*
X97004000Y-87169000D01*
X99084000Y-87169000D02*
X99697000Y-87169000D01*
X96439000Y-87129000D02*
X99649000Y-87129000D01*
X96490000Y-87089000D02*
X99598000Y-87089000D01*
X96544000Y-87049000D02*
X99544000Y-87049000D01*
X96601000Y-87009000D02*
X99487000Y-87009000D01*
X96661000Y-86969000D02*
X99427000Y-86969000D01*
X96725000Y-86929000D02*
X99363000Y-86929000D01*
X96793000Y-86889000D02*
X99295000Y-86889000D01*
X96866000Y-86849000D02*
X99222000Y-86849000D01*
X96946000Y-86809000D02*
X99142000Y-86809000D01*
X97033000Y-86769000D02*
X99055000Y-86769000D01*
X97129000Y-86729000D02*
X98959000Y-86729000D01*
X97239000Y-86689000D02*
X98849000Y-86689000D01*
X97367000Y-86649000D02*
X98721000Y-86649000D01*
X97526000Y-86609000D02*
X98562000Y-86609000D01*
X97760000Y-86569000D02*
X98328000Y-86569000D01*
X96569000Y-91974775D02*
X96569000Y-91474775D01*
X96319000Y-91724775D02*
X96819000Y-91724775D01*
G04 #@! TO.C,D1*
X111724000Y-101156000D02*
X111724000Y-101312000D01*
X111724000Y-98840000D02*
X111724000Y-98996000D01*
X114325130Y-101155837D02*
G75*
G02X112243039Y-101156000I-1041130J1079837D01*
G01*
X114325130Y-98996163D02*
G75*
G03X112243039Y-98996000I-1041130J-1079837D01*
G01*
X114956335Y-101154608D02*
G75*
G02X111724000Y-101311516I-1672335J1078608D01*
G01*
X114956335Y-98997392D02*
G75*
G03X111724000Y-98840484I-1672335J-1078608D01*
G01*
G04 #@! TO.C,D2*
X73597392Y-87481665D02*
G75*
G03X73440484Y-90714000I1078608J-1672335D01*
G01*
X75754608Y-87481665D02*
G75*
G02X75911516Y-90714000I-1078608J-1672335D01*
G01*
X73596163Y-88112870D02*
G75*
G03X73596000Y-90194961I1079837J-1041130D01*
G01*
X75755837Y-88112870D02*
G75*
G02X75756000Y-90194961I-1079837J-1041130D01*
G01*
X73440000Y-90714000D02*
X73596000Y-90714000D01*
X75756000Y-90714000D02*
X75912000Y-90714000D01*
G04 #@! TO.C,D3*
X88462000Y-106754000D02*
X88592000Y-106754000D01*
X88592000Y-106754000D02*
X88592000Y-112194000D01*
X88592000Y-112194000D02*
X88462000Y-112194000D01*
X85782000Y-106754000D02*
X85652000Y-106754000D01*
X85652000Y-106754000D02*
X85652000Y-112194000D01*
X85652000Y-112194000D02*
X85782000Y-112194000D01*
X88592000Y-107654000D02*
X85652000Y-107654000D01*
X88592000Y-107774000D02*
X85652000Y-107774000D01*
X88592000Y-107534000D02*
X85652000Y-107534000D01*
G04 #@! TO.C,J1*
X73720000Y-108628000D02*
X72670000Y-108628000D01*
X72670000Y-109678000D02*
X72670000Y-108628000D01*
X82070000Y-114728000D02*
X82070000Y-123528000D01*
X82070000Y-123528000D02*
X72870000Y-123528000D01*
X79370000Y-108828000D02*
X82070000Y-108828000D01*
X82070000Y-108828000D02*
X82070000Y-110728000D01*
X72870000Y-123528000D02*
X72870000Y-108828000D01*
X72870000Y-108828000D02*
X75470000Y-108828000D01*
G04 #@! TO.C,J2*
X89214000Y-97476000D02*
X86554000Y-97476000D01*
X89214000Y-100076000D02*
X89214000Y-97476000D01*
X86554000Y-100076000D02*
X86554000Y-97476000D01*
X89214000Y-100076000D02*
X86554000Y-100076000D01*
X89214000Y-101346000D02*
X89214000Y-102676000D01*
X89214000Y-102676000D02*
X87884000Y-102676000D01*
G04 #@! TO.C,J4*
X82852000Y-75740000D02*
X85852000Y-75740000D01*
X82852000Y-78740000D02*
X82852000Y-75740000D01*
X90852000Y-82040000D02*
X91452000Y-82040000D01*
X86252000Y-82040000D02*
X86852000Y-82040000D01*
X83352000Y-76190000D02*
X94402000Y-76190000D01*
X83352000Y-82040000D02*
X83352000Y-76190000D01*
X87102000Y-82040000D02*
X90602000Y-82040000D01*
X94402000Y-82040000D02*
X94402000Y-76190000D01*
X83352000Y-82040000D02*
X86002000Y-82040000D01*
X91752000Y-82040000D02*
X94402000Y-82040000D01*
G04 #@! TO.C,J6*
X117662000Y-119042000D02*
X102302000Y-119042000D01*
X102302000Y-119042000D02*
X102302000Y-121702000D01*
X102302000Y-121702000D02*
X117662000Y-121702000D01*
X117662000Y-121702000D02*
X117662000Y-119042000D01*
X116712000Y-121702000D02*
X116712000Y-127702000D01*
X116712000Y-127702000D02*
X115952000Y-127702000D01*
X115952000Y-127702000D02*
X115952000Y-121702000D01*
X116652000Y-121702000D02*
X116652000Y-127702000D01*
X116532000Y-121702000D02*
X116532000Y-127702000D01*
X116412000Y-121702000D02*
X116412000Y-127702000D01*
X116292000Y-121702000D02*
X116292000Y-127702000D01*
X116172000Y-121702000D02*
X116172000Y-127702000D01*
X116052000Y-121702000D02*
X116052000Y-127702000D01*
X116712000Y-118712000D02*
X116712000Y-119042000D01*
X115952000Y-118712000D02*
X115952000Y-119042000D01*
X115062000Y-119042000D02*
X115062000Y-121702000D01*
X114172000Y-121702000D02*
X114172000Y-127702000D01*
X114172000Y-127702000D02*
X113412000Y-127702000D01*
X113412000Y-127702000D02*
X113412000Y-121702000D01*
X114172000Y-118644929D02*
X114172000Y-119042000D01*
X113412000Y-118644929D02*
X113412000Y-119042000D01*
X112522000Y-119042000D02*
X112522000Y-121702000D01*
X111632000Y-121702000D02*
X111632000Y-127702000D01*
X111632000Y-127702000D02*
X110872000Y-127702000D01*
X110872000Y-127702000D02*
X110872000Y-121702000D01*
X111632000Y-118644929D02*
X111632000Y-119042000D01*
X110872000Y-118644929D02*
X110872000Y-119042000D01*
X109982000Y-119042000D02*
X109982000Y-121702000D01*
X109092000Y-121702000D02*
X109092000Y-127702000D01*
X109092000Y-127702000D02*
X108332000Y-127702000D01*
X108332000Y-127702000D02*
X108332000Y-121702000D01*
X109092000Y-118644929D02*
X109092000Y-119042000D01*
X108332000Y-118644929D02*
X108332000Y-119042000D01*
X107442000Y-119042000D02*
X107442000Y-121702000D01*
X106552000Y-121702000D02*
X106552000Y-127702000D01*
X106552000Y-127702000D02*
X105792000Y-127702000D01*
X105792000Y-127702000D02*
X105792000Y-121702000D01*
X106552000Y-118644929D02*
X106552000Y-119042000D01*
X105792000Y-118644929D02*
X105792000Y-119042000D01*
X104902000Y-119042000D02*
X104902000Y-121702000D01*
X104012000Y-121702000D02*
X104012000Y-127702000D01*
X104012000Y-127702000D02*
X103252000Y-127702000D01*
X103252000Y-127702000D02*
X103252000Y-121702000D01*
X104012000Y-118644929D02*
X104012000Y-119042000D01*
X103252000Y-118644929D02*
X103252000Y-119042000D01*
X116332000Y-116332000D02*
X117602000Y-116332000D01*
X117602000Y-116332000D02*
X117602000Y-117602000D01*
G04 #@! TO.C,Q1*
X81828000Y-62960000D02*
X71588000Y-62960000D01*
X81828000Y-58319000D02*
X71588000Y-58319000D01*
X81828000Y-62960000D02*
X81828000Y-58319000D01*
X71588000Y-62960000D02*
X71588000Y-58319000D01*
X81828000Y-61450000D02*
X71588000Y-61450000D01*
X78558000Y-62960000D02*
X78558000Y-61450000D01*
X74857000Y-62960000D02*
X74857000Y-61450000D01*
G04 #@! TO.C,R1*
X124682000Y-101446000D02*
X124682000Y-101116000D01*
X118142000Y-101446000D02*
X124682000Y-101446000D01*
X118142000Y-101116000D02*
X118142000Y-101446000D01*
X124682000Y-98706000D02*
X124682000Y-99036000D01*
X118142000Y-98706000D02*
X124682000Y-98706000D01*
X118142000Y-99036000D02*
X118142000Y-98706000D01*
G04 #@! TO.C,R2*
X98266000Y-113638000D02*
X98266000Y-113308000D01*
X91726000Y-113638000D02*
X98266000Y-113638000D01*
X91726000Y-113308000D02*
X91726000Y-113638000D01*
X98266000Y-110898000D02*
X98266000Y-111228000D01*
X91726000Y-110898000D02*
X98266000Y-110898000D01*
X91726000Y-111228000D02*
X91726000Y-110898000D01*
G04 #@! TO.C,R3*
X81502000Y-96366000D02*
X81502000Y-96036000D01*
X74962000Y-96366000D02*
X81502000Y-96366000D01*
X74962000Y-96036000D02*
X74962000Y-96366000D01*
X81502000Y-93626000D02*
X81502000Y-93956000D01*
X74962000Y-93626000D02*
X81502000Y-93626000D01*
X74962000Y-93956000D02*
X74962000Y-93626000D01*
G04 #@! TO.C,R6*
X86714000Y-48546000D02*
X86384000Y-48546000D01*
X86714000Y-55086000D02*
X86714000Y-48546000D01*
X86384000Y-55086000D02*
X86714000Y-55086000D01*
X83974000Y-48546000D02*
X84304000Y-48546000D01*
X83974000Y-55086000D02*
X83974000Y-48546000D01*
X84304000Y-55086000D02*
X83974000Y-55086000D01*
G04 #@! TO.C,R7*
X97250000Y-54964000D02*
X97250000Y-54634000D01*
X90710000Y-54964000D02*
X97250000Y-54964000D01*
X90710000Y-54634000D02*
X90710000Y-54964000D01*
X97250000Y-52224000D02*
X97250000Y-52554000D01*
X90710000Y-52224000D02*
X97250000Y-52224000D01*
X90710000Y-52554000D02*
X90710000Y-52224000D01*
G04 #@! TO.C,R9*
X85630000Y-64416000D02*
X85630000Y-64746000D01*
X92170000Y-64416000D02*
X85630000Y-64416000D01*
X92170000Y-64746000D02*
X92170000Y-64416000D01*
X85630000Y-67156000D02*
X85630000Y-66826000D01*
X92170000Y-67156000D02*
X85630000Y-67156000D01*
X92170000Y-66826000D02*
X92170000Y-67156000D01*
G04 #@! TO.C,R10*
X85630000Y-69242000D02*
X85630000Y-69572000D01*
X92170000Y-69242000D02*
X85630000Y-69242000D01*
X92170000Y-69572000D02*
X92170000Y-69242000D01*
X85630000Y-71982000D02*
X85630000Y-71652000D01*
X92170000Y-71982000D02*
X85630000Y-71982000D01*
X92170000Y-71652000D02*
X92170000Y-71982000D01*
G04 #@! TO.C,RV1*
X100200000Y-64126000D02*
X100200000Y-57286000D01*
X95260000Y-64126000D02*
X95260000Y-57286000D01*
X98410000Y-57286000D02*
X95260000Y-57286000D01*
X100200000Y-57286000D02*
X99710000Y-57286000D01*
X98410000Y-64126000D02*
X95260000Y-64126000D01*
X100200000Y-64126000D02*
X99710000Y-64126000D01*
G04 #@! TO.C,SW1*
X97702000Y-106696000D02*
X97702000Y-102196000D01*
X93702000Y-107946000D02*
X95202000Y-107946000D01*
X91202000Y-102196000D02*
X91202000Y-106696000D01*
X95202000Y-100946000D02*
X93702000Y-100946000D01*
D11*
G04 #@! TO.C,SW2*
X72160000Y-104854000D02*
X72160000Y-98854000D01*
X72160000Y-98854000D02*
X84160000Y-98854000D01*
X84160000Y-98854000D02*
X84160000Y-104854000D01*
X84160000Y-104854000D02*
X72160000Y-104854000D01*
D14*
G04 #@! TO.C,U1*
X100687197Y-107914162D02*
G75*
G02X100687197Y-109914162I0J-1000000D01*
G01*
X100687197Y-109914162D02*
X100687197Y-111564162D01*
X100687197Y-111564162D02*
X136367197Y-111564162D01*
X136367197Y-111564162D02*
X136367197Y-106264162D01*
X136367197Y-106264162D02*
X100687197Y-106264162D01*
X100687197Y-106264162D02*
X100687197Y-107914162D01*
G04 #@! TO.C,U2*
X86900000Y-94528000D02*
X86900000Y-84288000D01*
X91541000Y-94528000D02*
X91541000Y-84288000D01*
X86900000Y-94528000D02*
X91541000Y-94528000D01*
X86900000Y-84288000D02*
X91541000Y-84288000D01*
X88410000Y-94528000D02*
X88410000Y-84288000D01*
X86900000Y-91258000D02*
X88410000Y-91258000D01*
X86900000Y-87557000D02*
X88410000Y-87557000D01*
G04 #@! TO.C,U4*
X74458000Y-75244000D02*
X75708000Y-75244000D01*
X74458000Y-64964000D02*
X74458000Y-75244000D01*
X78958000Y-64964000D02*
X74458000Y-64964000D01*
X78958000Y-75244000D02*
X78958000Y-64964000D01*
X77708000Y-75244000D02*
X78958000Y-75244000D01*
X75708000Y-75244000D02*
G75*
G02X77708000Y-75244000I1000000J0D01*
G01*
G04 #@! TO.C,U5*
X73456629Y-55590674D02*
G75*
G03X72679098Y-54813084I2997371J3774674D01*
G01*
X72565961Y-56481856D02*
X73456916Y-55590902D01*
X71788144Y-55704039D02*
X72565961Y-56481856D01*
X72679098Y-54813084D02*
X71788144Y-55704039D01*
G04 #@! TO.C,U6*
X100806000Y-81861000D02*
X99296000Y-81861000D01*
X100806000Y-78160000D02*
X99296000Y-78160000D01*
X99296000Y-74890000D02*
X99296000Y-85130000D01*
X100806000Y-85130000D02*
X96165000Y-85130000D01*
X100806000Y-74890000D02*
X96165000Y-74890000D01*
X96165000Y-74890000D02*
X96165000Y-85130000D01*
X100806000Y-74890000D02*
X100806000Y-85130000D01*
G04 #@! TO.C,Y1*
X127004000Y-118798000D02*
X122504000Y-118798000D01*
X127004000Y-115898000D02*
X122504000Y-115898000D01*
X127004000Y-115898000D02*
G75*
G02X127004000Y-118798000I0J-1450000D01*
G01*
X122504000Y-115898000D02*
G75*
G03X122504000Y-118798000I0J-1450000D01*
G01*
G04 #@! TO.C,U3*
D11*
X118474095Y-45170380D02*
X118474095Y-45979904D01*
X118521714Y-46075142D01*
X118569333Y-46122761D01*
X118664571Y-46170380D01*
X118855047Y-46170380D01*
X118950285Y-46122761D01*
X118997904Y-46075142D01*
X119045523Y-45979904D01*
X119045523Y-45170380D01*
X119426476Y-45170380D02*
X120045523Y-45170380D01*
X119712190Y-45551333D01*
X119855047Y-45551333D01*
X119950285Y-45598952D01*
X119997904Y-45646571D01*
X120045523Y-45741809D01*
X120045523Y-45979904D01*
X119997904Y-46075142D01*
X119950285Y-46122761D01*
X119855047Y-46170380D01*
X119569333Y-46170380D01*
X119474095Y-46122761D01*
X119426476Y-46075142D01*
G04 #@! TO.C,C1*
X94789333Y-114951142D02*
X94741714Y-114998761D01*
X94598857Y-115046380D01*
X94503619Y-115046380D01*
X94360761Y-114998761D01*
X94265523Y-114903523D01*
X94217904Y-114808285D01*
X94170285Y-114617809D01*
X94170285Y-114474952D01*
X94217904Y-114284476D01*
X94265523Y-114189238D01*
X94360761Y-114094000D01*
X94503619Y-114046380D01*
X94598857Y-114046380D01*
X94741714Y-114094000D01*
X94789333Y-114141619D01*
X95741714Y-115046380D02*
X95170285Y-115046380D01*
X95456000Y-115046380D02*
X95456000Y-114046380D01*
X95360761Y-114189238D01*
X95265523Y-114284476D01*
X95170285Y-114332095D01*
G04 #@! TO.C,C2*
X94651142Y-95686666D02*
X94698761Y-95734285D01*
X94746380Y-95877142D01*
X94746380Y-95972380D01*
X94698761Y-96115238D01*
X94603523Y-96210476D01*
X94508285Y-96258095D01*
X94317809Y-96305714D01*
X94174952Y-96305714D01*
X93984476Y-96258095D01*
X93889238Y-96210476D01*
X93794000Y-96115238D01*
X93746380Y-95972380D01*
X93746380Y-95877142D01*
X93794000Y-95734285D01*
X93841619Y-95686666D01*
X93841619Y-95305714D02*
X93794000Y-95258095D01*
X93746380Y-95162857D01*
X93746380Y-94924761D01*
X93794000Y-94829523D01*
X93841619Y-94781904D01*
X93936857Y-94734285D01*
X94032095Y-94734285D01*
X94174952Y-94781904D01*
X94746380Y-95353333D01*
X94746380Y-94734285D01*
G04 #@! TO.C,C3*
X78649142Y-89082666D02*
X78696761Y-89130285D01*
X78744380Y-89273142D01*
X78744380Y-89368380D01*
X78696761Y-89511238D01*
X78601523Y-89606476D01*
X78506285Y-89654095D01*
X78315809Y-89701714D01*
X78172952Y-89701714D01*
X77982476Y-89654095D01*
X77887238Y-89606476D01*
X77792000Y-89511238D01*
X77744380Y-89368380D01*
X77744380Y-89273142D01*
X77792000Y-89130285D01*
X77839619Y-89082666D01*
X77744380Y-88749333D02*
X77744380Y-88130285D01*
X78125333Y-88463619D01*
X78125333Y-88320761D01*
X78172952Y-88225523D01*
X78220571Y-88177904D01*
X78315809Y-88130285D01*
X78553904Y-88130285D01*
X78649142Y-88177904D01*
X78696761Y-88225523D01*
X78744380Y-88320761D01*
X78744380Y-88606476D01*
X78696761Y-88701714D01*
X78649142Y-88749333D01*
G04 #@! TO.C,C4*
X76501333Y-81169142D02*
X76453714Y-81216761D01*
X76310857Y-81264380D01*
X76215619Y-81264380D01*
X76072761Y-81216761D01*
X75977523Y-81121523D01*
X75929904Y-81026285D01*
X75882285Y-80835809D01*
X75882285Y-80692952D01*
X75929904Y-80502476D01*
X75977523Y-80407238D01*
X76072761Y-80312000D01*
X76215619Y-80264380D01*
X76310857Y-80264380D01*
X76453714Y-80312000D01*
X76501333Y-80359619D01*
X77358476Y-80597714D02*
X77358476Y-81264380D01*
X77120380Y-80216761D02*
X76882285Y-80931047D01*
X77501333Y-80931047D01*
G04 #@! TO.C,C5*
X94027333Y-46117142D02*
X93979714Y-46164761D01*
X93836857Y-46212380D01*
X93741619Y-46212380D01*
X93598761Y-46164761D01*
X93503523Y-46069523D01*
X93455904Y-45974285D01*
X93408285Y-45783809D01*
X93408285Y-45640952D01*
X93455904Y-45450476D01*
X93503523Y-45355238D01*
X93598761Y-45260000D01*
X93741619Y-45212380D01*
X93836857Y-45212380D01*
X93979714Y-45260000D01*
X94027333Y-45307619D01*
X94932095Y-45212380D02*
X94455904Y-45212380D01*
X94408285Y-45688571D01*
X94455904Y-45640952D01*
X94551142Y-45593333D01*
X94789238Y-45593333D01*
X94884476Y-45640952D01*
X94932095Y-45688571D01*
X94979714Y-45783809D01*
X94979714Y-46021904D01*
X94932095Y-46117142D01*
X94884476Y-46164761D01*
X94789238Y-46212380D01*
X94551142Y-46212380D01*
X94455904Y-46164761D01*
X94408285Y-46117142D01*
G04 #@! TO.C,C6*
X76501333Y-76343142D02*
X76453714Y-76390761D01*
X76310857Y-76438380D01*
X76215619Y-76438380D01*
X76072761Y-76390761D01*
X75977523Y-76295523D01*
X75929904Y-76200285D01*
X75882285Y-76009809D01*
X75882285Y-75866952D01*
X75929904Y-75676476D01*
X75977523Y-75581238D01*
X76072761Y-75486000D01*
X76215619Y-75438380D01*
X76310857Y-75438380D01*
X76453714Y-75486000D01*
X76501333Y-75533619D01*
X77358476Y-75438380D02*
X77168000Y-75438380D01*
X77072761Y-75486000D01*
X77025142Y-75533619D01*
X76929904Y-75676476D01*
X76882285Y-75866952D01*
X76882285Y-76247904D01*
X76929904Y-76343142D01*
X76977523Y-76390761D01*
X77072761Y-76438380D01*
X77263238Y-76438380D01*
X77358476Y-76390761D01*
X77406095Y-76343142D01*
X77453714Y-76247904D01*
X77453714Y-76009809D01*
X77406095Y-75914571D01*
X77358476Y-75866952D01*
X77263238Y-75819333D01*
X77072761Y-75819333D01*
X76977523Y-75866952D01*
X76929904Y-75914571D01*
X76882285Y-76009809D01*
G04 #@! TO.C,C7*
X88773333Y-63309142D02*
X88725714Y-63356761D01*
X88582857Y-63404380D01*
X88487619Y-63404380D01*
X88344761Y-63356761D01*
X88249523Y-63261523D01*
X88201904Y-63166285D01*
X88154285Y-62975809D01*
X88154285Y-62832952D01*
X88201904Y-62642476D01*
X88249523Y-62547238D01*
X88344761Y-62452000D01*
X88487619Y-62404380D01*
X88582857Y-62404380D01*
X88725714Y-62452000D01*
X88773333Y-62499619D01*
X89106666Y-62404380D02*
X89773333Y-62404380D01*
X89344761Y-63404380D01*
G04 #@! TO.C,C8*
X95647142Y-69548666D02*
X95694761Y-69596285D01*
X95742380Y-69739142D01*
X95742380Y-69834380D01*
X95694761Y-69977238D01*
X95599523Y-70072476D01*
X95504285Y-70120095D01*
X95313809Y-70167714D01*
X95170952Y-70167714D01*
X94980476Y-70120095D01*
X94885238Y-70072476D01*
X94790000Y-69977238D01*
X94742380Y-69834380D01*
X94742380Y-69739142D01*
X94790000Y-69596285D01*
X94837619Y-69548666D01*
X95170952Y-68977238D02*
X95123333Y-69072476D01*
X95075714Y-69120095D01*
X94980476Y-69167714D01*
X94932857Y-69167714D01*
X94837619Y-69120095D01*
X94790000Y-69072476D01*
X94742380Y-68977238D01*
X94742380Y-68786761D01*
X94790000Y-68691523D01*
X94837619Y-68643904D01*
X94932857Y-68596285D01*
X94980476Y-68596285D01*
X95075714Y-68643904D01*
X95123333Y-68691523D01*
X95170952Y-68786761D01*
X95170952Y-68977238D01*
X95218571Y-69072476D01*
X95266190Y-69120095D01*
X95361428Y-69167714D01*
X95551904Y-69167714D01*
X95647142Y-69120095D01*
X95694761Y-69072476D01*
X95742380Y-68977238D01*
X95742380Y-68786761D01*
X95694761Y-68691523D01*
X95647142Y-68643904D01*
X95551904Y-68596285D01*
X95361428Y-68596285D01*
X95266190Y-68643904D01*
X95218571Y-68691523D01*
X95170952Y-68786761D01*
G04 #@! TO.C,C9*
X94651142Y-89336666D02*
X94698761Y-89384285D01*
X94746380Y-89527142D01*
X94746380Y-89622380D01*
X94698761Y-89765238D01*
X94603523Y-89860476D01*
X94508285Y-89908095D01*
X94317809Y-89955714D01*
X94174952Y-89955714D01*
X93984476Y-89908095D01*
X93889238Y-89860476D01*
X93794000Y-89765238D01*
X93746380Y-89622380D01*
X93746380Y-89527142D01*
X93794000Y-89384285D01*
X93841619Y-89336666D01*
X94746380Y-88860476D02*
X94746380Y-88670000D01*
X94698761Y-88574761D01*
X94651142Y-88527142D01*
X94508285Y-88431904D01*
X94317809Y-88384285D01*
X93936857Y-88384285D01*
X93841619Y-88431904D01*
X93794000Y-88479523D01*
X93746380Y-88574761D01*
X93746380Y-88765238D01*
X93794000Y-88860476D01*
X93841619Y-88908095D01*
X93936857Y-88955714D01*
X94174952Y-88955714D01*
X94270190Y-88908095D01*
X94317809Y-88860476D01*
X94365428Y-88765238D01*
X94365428Y-88574761D01*
X94317809Y-88479523D01*
X94270190Y-88431904D01*
X94174952Y-88384285D01*
G04 #@! TO.C,D1*
X112545904Y-97568380D02*
X112545904Y-96568380D01*
X112784000Y-96568380D01*
X112926857Y-96616000D01*
X113022095Y-96711238D01*
X113069714Y-96806476D01*
X113117333Y-96996952D01*
X113117333Y-97139809D01*
X113069714Y-97330285D01*
X113022095Y-97425523D01*
X112926857Y-97520761D01*
X112784000Y-97568380D01*
X112545904Y-97568380D01*
X114069714Y-97568380D02*
X113498285Y-97568380D01*
X113784000Y-97568380D02*
X113784000Y-96568380D01*
X113688761Y-96711238D01*
X113593523Y-96806476D01*
X113498285Y-96854095D01*
G04 #@! TO.C,D2*
X72168380Y-89892095D02*
X71168380Y-89892095D01*
X71168380Y-89654000D01*
X71216000Y-89511142D01*
X71311238Y-89415904D01*
X71406476Y-89368285D01*
X71596952Y-89320666D01*
X71739809Y-89320666D01*
X71930285Y-89368285D01*
X72025523Y-89415904D01*
X72120761Y-89511142D01*
X72168380Y-89654000D01*
X72168380Y-89892095D01*
X71263619Y-88939714D02*
X71216000Y-88892095D01*
X71168380Y-88796857D01*
X71168380Y-88558761D01*
X71216000Y-88463523D01*
X71263619Y-88415904D01*
X71358857Y-88368285D01*
X71454095Y-88368285D01*
X71596952Y-88415904D01*
X72168380Y-88987333D01*
X72168380Y-88368285D01*
G04 #@! TO.C,D3*
X90044380Y-110212095D02*
X89044380Y-110212095D01*
X89044380Y-109974000D01*
X89092000Y-109831142D01*
X89187238Y-109735904D01*
X89282476Y-109688285D01*
X89472952Y-109640666D01*
X89615809Y-109640666D01*
X89806285Y-109688285D01*
X89901523Y-109735904D01*
X89996761Y-109831142D01*
X90044380Y-109974000D01*
X90044380Y-110212095D01*
X89044380Y-109307333D02*
X89044380Y-108688285D01*
X89425333Y-109021619D01*
X89425333Y-108878761D01*
X89472952Y-108783523D01*
X89520571Y-108735904D01*
X89615809Y-108688285D01*
X89853904Y-108688285D01*
X89949142Y-108735904D01*
X89996761Y-108783523D01*
X90044380Y-108878761D01*
X90044380Y-109164476D01*
X89996761Y-109259714D01*
X89949142Y-109307333D01*
X89674380Y-105925904D02*
X88674380Y-105925904D01*
X89674380Y-105354476D02*
X89102952Y-105783047D01*
X88674380Y-105354476D02*
X89245809Y-105925904D01*
G04 #@! TO.C,J1*
X82672380Y-118511333D02*
X83386666Y-118511333D01*
X83529523Y-118558952D01*
X83624761Y-118654190D01*
X83672380Y-118797047D01*
X83672380Y-118892285D01*
X83672380Y-117511333D02*
X83672380Y-118082761D01*
X83672380Y-117797047D02*
X82672380Y-117797047D01*
X82815238Y-117892285D01*
X82910476Y-117987523D01*
X82958095Y-118082761D01*
G04 #@! TO.C,J2*
X87550666Y-103128380D02*
X87550666Y-103842666D01*
X87503047Y-103985523D01*
X87407809Y-104080761D01*
X87264952Y-104128380D01*
X87169714Y-104128380D01*
X87979238Y-103223619D02*
X88026857Y-103176000D01*
X88122095Y-103128380D01*
X88360190Y-103128380D01*
X88455428Y-103176000D01*
X88503047Y-103223619D01*
X88550666Y-103318857D01*
X88550666Y-103414095D01*
X88503047Y-103556952D01*
X87931619Y-104128380D01*
X88550666Y-104128380D01*
G04 #@! TO.C,J4*
X81304380Y-80573333D02*
X82018666Y-80573333D01*
X82161523Y-80620952D01*
X82256761Y-80716190D01*
X82304380Y-80859047D01*
X82304380Y-80954285D01*
X81637714Y-79668571D02*
X82304380Y-79668571D01*
X81256761Y-79906666D02*
X81971047Y-80144761D01*
X81971047Y-79525714D01*
G04 #@! TO.C,J6*
X118054380Y-122320333D02*
X118768666Y-122320333D01*
X118911523Y-122367952D01*
X119006761Y-122463190D01*
X119054380Y-122606047D01*
X119054380Y-122701285D01*
X118054380Y-121415571D02*
X118054380Y-121606047D01*
X118102000Y-121701285D01*
X118149619Y-121748904D01*
X118292476Y-121844142D01*
X118482952Y-121891761D01*
X118863904Y-121891761D01*
X118959142Y-121844142D01*
X119006761Y-121796523D01*
X119054380Y-121701285D01*
X119054380Y-121510809D01*
X119006761Y-121415571D01*
X118959142Y-121367952D01*
X118863904Y-121320333D01*
X118625809Y-121320333D01*
X118530571Y-121367952D01*
X118482952Y-121415571D01*
X118435333Y-121510809D01*
X118435333Y-121701285D01*
X118482952Y-121796523D01*
X118530571Y-121844142D01*
X118625809Y-121891761D01*
G04 #@! TO.C,Q1*
X76612761Y-64507619D02*
X76517523Y-64460000D01*
X76422285Y-64364761D01*
X76279428Y-64221904D01*
X76184190Y-64174285D01*
X76088952Y-64174285D01*
X76136571Y-64412380D02*
X76041333Y-64364761D01*
X75946095Y-64269523D01*
X75898476Y-64079047D01*
X75898476Y-63745714D01*
X75946095Y-63555238D01*
X76041333Y-63460000D01*
X76136571Y-63412380D01*
X76327047Y-63412380D01*
X76422285Y-63460000D01*
X76517523Y-63555238D01*
X76565142Y-63745714D01*
X76565142Y-64079047D01*
X76517523Y-64269523D01*
X76422285Y-64364761D01*
X76327047Y-64412380D01*
X76136571Y-64412380D01*
X77517523Y-64412380D02*
X76946095Y-64412380D01*
X77231809Y-64412380D02*
X77231809Y-63412380D01*
X77136571Y-63555238D01*
X77041333Y-63650476D01*
X76946095Y-63698095D01*
G04 #@! TO.C,R1*
X121245333Y-98158380D02*
X120912000Y-97682190D01*
X120673904Y-98158380D02*
X120673904Y-97158380D01*
X121054857Y-97158380D01*
X121150095Y-97206000D01*
X121197714Y-97253619D01*
X121245333Y-97348857D01*
X121245333Y-97491714D01*
X121197714Y-97586952D01*
X121150095Y-97634571D01*
X121054857Y-97682190D01*
X120673904Y-97682190D01*
X122197714Y-98158380D02*
X121626285Y-98158380D01*
X121912000Y-98158380D02*
X121912000Y-97158380D01*
X121816761Y-97301238D01*
X121721523Y-97396476D01*
X121626285Y-97444095D01*
G04 #@! TO.C,R2*
X94829333Y-110350380D02*
X94496000Y-109874190D01*
X94257904Y-110350380D02*
X94257904Y-109350380D01*
X94638857Y-109350380D01*
X94734095Y-109398000D01*
X94781714Y-109445619D01*
X94829333Y-109540857D01*
X94829333Y-109683714D01*
X94781714Y-109778952D01*
X94734095Y-109826571D01*
X94638857Y-109874190D01*
X94257904Y-109874190D01*
X95210285Y-109445619D02*
X95257904Y-109398000D01*
X95353142Y-109350380D01*
X95591238Y-109350380D01*
X95686476Y-109398000D01*
X95734095Y-109445619D01*
X95781714Y-109540857D01*
X95781714Y-109636095D01*
X95734095Y-109778952D01*
X95162666Y-110350380D01*
X95781714Y-110350380D01*
G04 #@! TO.C,R3*
X78065333Y-93078380D02*
X77732000Y-92602190D01*
X77493904Y-93078380D02*
X77493904Y-92078380D01*
X77874857Y-92078380D01*
X77970095Y-92126000D01*
X78017714Y-92173619D01*
X78065333Y-92268857D01*
X78065333Y-92411714D01*
X78017714Y-92506952D01*
X77970095Y-92554571D01*
X77874857Y-92602190D01*
X77493904Y-92602190D01*
X78398666Y-92078380D02*
X79017714Y-92078380D01*
X78684380Y-92459333D01*
X78827238Y-92459333D01*
X78922476Y-92506952D01*
X78970095Y-92554571D01*
X79017714Y-92649809D01*
X79017714Y-92887904D01*
X78970095Y-92983142D01*
X78922476Y-93030761D01*
X78827238Y-93078380D01*
X78541523Y-93078380D01*
X78446285Y-93030761D01*
X78398666Y-92983142D01*
G04 #@! TO.C,R6*
X83426380Y-51982666D02*
X82950190Y-52316000D01*
X83426380Y-52554095D02*
X82426380Y-52554095D01*
X82426380Y-52173142D01*
X82474000Y-52077904D01*
X82521619Y-52030285D01*
X82616857Y-51982666D01*
X82759714Y-51982666D01*
X82854952Y-52030285D01*
X82902571Y-52077904D01*
X82950190Y-52173142D01*
X82950190Y-52554095D01*
X82426380Y-51125523D02*
X82426380Y-51316000D01*
X82474000Y-51411238D01*
X82521619Y-51458857D01*
X82664476Y-51554095D01*
X82854952Y-51601714D01*
X83235904Y-51601714D01*
X83331142Y-51554095D01*
X83378761Y-51506476D01*
X83426380Y-51411238D01*
X83426380Y-51220761D01*
X83378761Y-51125523D01*
X83331142Y-51077904D01*
X83235904Y-51030285D01*
X82997809Y-51030285D01*
X82902571Y-51077904D01*
X82854952Y-51125523D01*
X82807333Y-51220761D01*
X82807333Y-51411238D01*
X82854952Y-51506476D01*
X82902571Y-51554095D01*
X82997809Y-51601714D01*
G04 #@! TO.C,R7*
X93813333Y-51676380D02*
X93480000Y-51200190D01*
X93241904Y-51676380D02*
X93241904Y-50676380D01*
X93622857Y-50676380D01*
X93718095Y-50724000D01*
X93765714Y-50771619D01*
X93813333Y-50866857D01*
X93813333Y-51009714D01*
X93765714Y-51104952D01*
X93718095Y-51152571D01*
X93622857Y-51200190D01*
X93241904Y-51200190D01*
X94146666Y-50676380D02*
X94813333Y-50676380D01*
X94384761Y-51676380D01*
G04 #@! TO.C,R9*
X88733333Y-68608380D02*
X88400000Y-68132190D01*
X88161904Y-68608380D02*
X88161904Y-67608380D01*
X88542857Y-67608380D01*
X88638095Y-67656000D01*
X88685714Y-67703619D01*
X88733333Y-67798857D01*
X88733333Y-67941714D01*
X88685714Y-68036952D01*
X88638095Y-68084571D01*
X88542857Y-68132190D01*
X88161904Y-68132190D01*
X89209523Y-68608380D02*
X89400000Y-68608380D01*
X89495238Y-68560761D01*
X89542857Y-68513142D01*
X89638095Y-68370285D01*
X89685714Y-68179809D01*
X89685714Y-67798857D01*
X89638095Y-67703619D01*
X89590476Y-67656000D01*
X89495238Y-67608380D01*
X89304761Y-67608380D01*
X89209523Y-67656000D01*
X89161904Y-67703619D01*
X89114285Y-67798857D01*
X89114285Y-68036952D01*
X89161904Y-68132190D01*
X89209523Y-68179809D01*
X89304761Y-68227428D01*
X89495238Y-68227428D01*
X89590476Y-68179809D01*
X89638095Y-68132190D01*
X89685714Y-68036952D01*
G04 #@! TO.C,R10*
X88257142Y-73434380D02*
X87923809Y-72958190D01*
X87685714Y-73434380D02*
X87685714Y-72434380D01*
X88066666Y-72434380D01*
X88161904Y-72482000D01*
X88209523Y-72529619D01*
X88257142Y-72624857D01*
X88257142Y-72767714D01*
X88209523Y-72862952D01*
X88161904Y-72910571D01*
X88066666Y-72958190D01*
X87685714Y-72958190D01*
X89209523Y-73434380D02*
X88638095Y-73434380D01*
X88923809Y-73434380D02*
X88923809Y-72434380D01*
X88828571Y-72577238D01*
X88733333Y-72672476D01*
X88638095Y-72720095D01*
X89828571Y-72434380D02*
X89923809Y-72434380D01*
X90019047Y-72482000D01*
X90066666Y-72529619D01*
X90114285Y-72624857D01*
X90161904Y-72815333D01*
X90161904Y-73053428D01*
X90114285Y-73243904D01*
X90066666Y-73339142D01*
X90019047Y-73386761D01*
X89923809Y-73434380D01*
X89828571Y-73434380D01*
X89733333Y-73386761D01*
X89685714Y-73339142D01*
X89638095Y-73243904D01*
X89590476Y-73053428D01*
X89590476Y-72815333D01*
X89638095Y-72624857D01*
X89685714Y-72529619D01*
X89733333Y-72482000D01*
X89828571Y-72434380D01*
G04 #@! TO.C,RV1*
X98464761Y-65708380D02*
X98131428Y-65232190D01*
X97893333Y-65708380D02*
X97893333Y-64708380D01*
X98274285Y-64708380D01*
X98369523Y-64756000D01*
X98417142Y-64803619D01*
X98464761Y-64898857D01*
X98464761Y-65041714D01*
X98417142Y-65136952D01*
X98369523Y-65184571D01*
X98274285Y-65232190D01*
X97893333Y-65232190D01*
X98750476Y-64708380D02*
X99083809Y-65708380D01*
X99417142Y-64708380D01*
X100274285Y-65708380D02*
X99702857Y-65708380D01*
X99988571Y-65708380D02*
X99988571Y-64708380D01*
X99893333Y-64851238D01*
X99798095Y-64946476D01*
X99702857Y-64994095D01*
G04 #@! TO.C,SW1*
X90606761Y-105779333D02*
X90654380Y-105636476D01*
X90654380Y-105398380D01*
X90606761Y-105303142D01*
X90559142Y-105255523D01*
X90463904Y-105207904D01*
X90368666Y-105207904D01*
X90273428Y-105255523D01*
X90225809Y-105303142D01*
X90178190Y-105398380D01*
X90130571Y-105588857D01*
X90082952Y-105684095D01*
X90035333Y-105731714D01*
X89940095Y-105779333D01*
X89844857Y-105779333D01*
X89749619Y-105731714D01*
X89702000Y-105684095D01*
X89654380Y-105588857D01*
X89654380Y-105350761D01*
X89702000Y-105207904D01*
X89654380Y-104874571D02*
X90654380Y-104636476D01*
X89940095Y-104446000D01*
X90654380Y-104255523D01*
X89654380Y-104017428D01*
X90654380Y-103112666D02*
X90654380Y-103684095D01*
X90654380Y-103398380D02*
X89654380Y-103398380D01*
X89797238Y-103493619D01*
X89892476Y-103588857D01*
X89940095Y-103684095D01*
G04 #@! TO.C,SW2*
X72326666Y-97178761D02*
X72469523Y-97226380D01*
X72707619Y-97226380D01*
X72802857Y-97178761D01*
X72850476Y-97131142D01*
X72898095Y-97035904D01*
X72898095Y-96940666D01*
X72850476Y-96845428D01*
X72802857Y-96797809D01*
X72707619Y-96750190D01*
X72517142Y-96702571D01*
X72421904Y-96654952D01*
X72374285Y-96607333D01*
X72326666Y-96512095D01*
X72326666Y-96416857D01*
X72374285Y-96321619D01*
X72421904Y-96274000D01*
X72517142Y-96226380D01*
X72755238Y-96226380D01*
X72898095Y-96274000D01*
X73231428Y-96226380D02*
X73469523Y-97226380D01*
X73660000Y-96512095D01*
X73850476Y-97226380D01*
X74088571Y-96226380D01*
X74421904Y-96321619D02*
X74469523Y-96274000D01*
X74564761Y-96226380D01*
X74802857Y-96226380D01*
X74898095Y-96274000D01*
X74945714Y-96321619D01*
X74993333Y-96416857D01*
X74993333Y-96512095D01*
X74945714Y-96654952D01*
X74374285Y-97226380D01*
X74993333Y-97226380D01*
G04 #@! TO.C,U1*
X99139577Y-109676066D02*
X99949101Y-109676066D01*
X100044339Y-109628447D01*
X100091958Y-109580828D01*
X100139577Y-109485590D01*
X100139577Y-109295114D01*
X100091958Y-109199876D01*
X100044339Y-109152257D01*
X99949101Y-109104638D01*
X99139577Y-109104638D01*
X100139577Y-108104638D02*
X100139577Y-108676066D01*
X100139577Y-108390352D02*
X99139577Y-108390352D01*
X99282435Y-108485590D01*
X99377673Y-108580828D01*
X99425292Y-108676066D01*
G04 #@! TO.C,U2*
X85352380Y-90169904D02*
X86161904Y-90169904D01*
X86257142Y-90122285D01*
X86304761Y-90074666D01*
X86352380Y-89979428D01*
X86352380Y-89788952D01*
X86304761Y-89693714D01*
X86257142Y-89646095D01*
X86161904Y-89598476D01*
X85352380Y-89598476D01*
X85447619Y-89169904D02*
X85400000Y-89122285D01*
X85352380Y-89027047D01*
X85352380Y-88788952D01*
X85400000Y-88693714D01*
X85447619Y-88646095D01*
X85542857Y-88598476D01*
X85638095Y-88598476D01*
X85780952Y-88646095D01*
X86352380Y-89217523D01*
X86352380Y-88598476D01*
G04 #@! TO.C,U4*
X75946095Y-75696380D02*
X75946095Y-76505904D01*
X75993714Y-76601142D01*
X76041333Y-76648761D01*
X76136571Y-76696380D01*
X76327047Y-76696380D01*
X76422285Y-76648761D01*
X76469904Y-76601142D01*
X76517523Y-76505904D01*
X76517523Y-75696380D01*
X77422285Y-76029714D02*
X77422285Y-76696380D01*
X77184190Y-75648761D02*
X76946095Y-76363047D01*
X77565142Y-76363047D01*
G04 #@! TO.C,U5*
X70086380Y-52577904D02*
X70895904Y-52577904D01*
X70991142Y-52530285D01*
X71038761Y-52482666D01*
X71086380Y-52387428D01*
X71086380Y-52196952D01*
X71038761Y-52101714D01*
X70991142Y-52054095D01*
X70895904Y-52006476D01*
X70086380Y-52006476D01*
X70086380Y-51054095D02*
X70086380Y-51530285D01*
X70562571Y-51577904D01*
X70514952Y-51530285D01*
X70467333Y-51435047D01*
X70467333Y-51196952D01*
X70514952Y-51101714D01*
X70562571Y-51054095D01*
X70657809Y-51006476D01*
X70895904Y-51006476D01*
X70991142Y-51054095D01*
X71038761Y-51101714D01*
X71086380Y-51196952D01*
X71086380Y-51435047D01*
X71038761Y-51530285D01*
X70991142Y-51577904D01*
G04 #@! TO.C,U6*
X101258380Y-80771904D02*
X102067904Y-80771904D01*
X102163142Y-80724285D01*
X102210761Y-80676666D01*
X102258380Y-80581428D01*
X102258380Y-80390952D01*
X102210761Y-80295714D01*
X102163142Y-80248095D01*
X102067904Y-80200476D01*
X101258380Y-80200476D01*
X101258380Y-79295714D02*
X101258380Y-79486190D01*
X101306000Y-79581428D01*
X101353619Y-79629047D01*
X101496476Y-79724285D01*
X101686952Y-79771904D01*
X102067904Y-79771904D01*
X102163142Y-79724285D01*
X102210761Y-79676666D01*
X102258380Y-79581428D01*
X102258380Y-79390952D01*
X102210761Y-79295714D01*
X102163142Y-79248095D01*
X102067904Y-79200476D01*
X101829809Y-79200476D01*
X101734571Y-79248095D01*
X101686952Y-79295714D01*
X101639333Y-79390952D01*
X101639333Y-79581428D01*
X101686952Y-79676666D01*
X101734571Y-79724285D01*
X101829809Y-79771904D01*
G04 #@! TO.C,Y1*
X124277809Y-119774190D02*
X124277809Y-120250380D01*
X123944476Y-119250380D02*
X124277809Y-119774190D01*
X124611142Y-119250380D01*
X125468285Y-120250380D02*
X124896857Y-120250380D01*
X125182571Y-120250380D02*
X125182571Y-119250380D01*
X125087333Y-119393238D01*
X124992095Y-119488476D01*
X124896857Y-119536095D01*
G04 #@! TD*
M02*
