M48
;DRILL file {KiCad (5.0.1)-3} date 25/11/2018 13:24:59
;FORMAT={3:3/ absolute / metric / suppress leading zeros}
FMAT,2
METRIC,TZ
T1C0.700
T2C0.762
T3C0.800
T4C0.900
T5C1.000
T6C1.100
T7C1.500
T8C3.200
%
G90
G05
M71
T1
X73914Y-51816
X76454Y-49276
X76454Y-54356
X78994Y-51816
T2
X85852Y-78740
X87852Y-78740
X89852Y-78740
X91852Y-78740
X110236Y-93218
X112776Y-93218
X115316Y-93218
X117856Y-93218
X120396Y-93218
X122936Y-93218
X125476Y-93218
X128016Y-93218
T3
X93726Y-90170
X114046Y-89916
X97790Y-66882
X97790Y-71882
X91694Y-48260
X96694Y-48260
X85090Y-65786
X92710Y-65786
X85090Y-70612
X92710Y-70612
X91186Y-112268
X98806Y-112268
X82042Y-87916
X82042Y-89916
X96520Y-60706
X99060Y-58166
X99060Y-63246
X98044Y-88170
X98044Y-90170
X74168Y-78486
X79168Y-78486
X90170Y-53594
X97790Y-53594
X92456Y-117094
X97456Y-117094
X85344Y-48006
X85344Y-55626
X98044Y-94520
X98044Y-96520
X102017Y-105104
X102017Y-112724
X104557Y-105104
X104557Y-112724
X107097Y-105104
X107097Y-112724
X109637Y-105104
X109637Y-112724
X112177Y-105104
X112177Y-112724
X114717Y-105104
X114717Y-112724
X117257Y-105104
X117257Y-112724
X119797Y-105104
X119797Y-112724
X122337Y-105104
X122337Y-112724
X124877Y-105104
X124877Y-112724
X127417Y-105104
X127417Y-112724
X129957Y-105104
X129957Y-112724
X132497Y-105104
X132497Y-112724
X135037Y-105104
X135037Y-112724
X74422Y-94996
X82042Y-94996
X86440Y-60452
X91440Y-60452
X72898Y-66294
X72898Y-68834
X72898Y-71374
X72898Y-73914
X80518Y-66294
X80518Y-68834
X80518Y-71374
X80518Y-73914
X117602Y-100076
X125222Y-100076
X74168Y-83312
X79168Y-83312
T4
X74676Y-87884
X74676Y-90424
X112014Y-100076
X114554Y-100076
T5
X87884Y-98806
X87884Y-101346
X122254Y-117348
X124754Y-117348
X127254Y-117348
X103632Y-117602
X106172Y-117602
X108712Y-117602
X111252Y-117602
X113792Y-117602
X116332Y-117602
T6
X92202Y-101196
X92202Y-107696
X96702Y-101196
X96702Y-107696
X90170Y-86868
X90170Y-89408
X90170Y-91948
X87122Y-105664
X87122Y-113284
X97536Y-77470
X97536Y-80010
X97536Y-82550
X74168Y-59690
X76708Y-59690
X79248Y-59690
T7
X73660Y-101854
X78160Y-101854
X82660Y-101854
T8
X105736Y-50218
X105736Y-93218
X132236Y-54718
X132236Y-93218
T5
X76470Y-109728G85X78470Y-109728
G05
X76470Y-115728G85X78470Y-115728
G05
X82170Y-113728G85X82170Y-111728
G05
T0
M30
